<?xml version="1.0" encoding="utf-8"?>
<svg width="500" height="500" viewBox="0 0 1024 1024" xmlns="http://www.w3.org/2000/svg">
  <defs>
    <linearGradient id="gradient-1" gradientUnits="userSpaceOnUse" x1="354.3183135986328" y1="28.881683349609375" x2="354.3183135986328" y2="195.33468627929688" gradientTransform="matrix(0.800973, -0.594222, 0.434796, 0.592105, 37.067863, 261.716556)">
      <stop style="stop-color: rgb(72, 137, 244);" offset="0"/>
      <stop style="stop-color: rgb(68, 126, 222);" offset="1"/>
    </linearGradient>
    <linearGradient id="gradient-2" gradientUnits="userSpaceOnUse" x1="406.8206787109375" y1="142.41018676757812" x2="406.8206787109375" y2="369.44610595703125" gradientTransform="matrix(0.243139, -0.970327, 0.358081, 0.090649, 226.581119, 647.006886)">
      <stop style="stop-color: rgb(36, 165, 103);" offset="0"/>
      <stop style="stop-color: rgb(22, 160, 93);" offset="1"/>
    </linearGradient>
  </defs>
  <g transform="matrix(1, 0, 0, 1, 2494.447998, 53.136276)">
    <path d="M 511.848 71.345 L 511.848 276.633 L 309.158 394.257 L 309.158 394.298 L 132.28 291.652 L 132.28 291.613 L 511.848 71.345 Z" style="fill: rgb(128, 183, 250);"/>
    <path d="M 511.848 71.345 L 511.848 276.633 L 714.537 394.257 L 714.537 394.298 L 891.415 291.652 L 511.848 71.345 Z" style="fill: rgb(69, 129, 225);"/>
    <path d="M 511.848 952.417 L 511.848 747.129 L 714.537 629.504 L 714.537 629.464 L 891.415 732.109 L 891.415 732.148 L 511.848 952.417 Z" style="fill: rgb(209, 233, 147);"/>
    <path d="M 132.28 732.109 L 132.28 291.613 L 309.158 394.296 L 309.158 629.464 Z" style="fill: rgb(222, 101, 71);"/>
    <path d="M 891.415 732.109 L 891.415 291.613 L 714.537 394.281 L 714.537 629.464 L 891.415 732.109 Z" style="fill: rgb(105, 179, 86);"/>
    <path d="M 512.344 952.655 L 512.344 747.367 L 309.197 629.477 L 132.253 732.146 L 512.344 952.655 Z" style="fill: rgb(232, 188, 84);"/>
    <path style="fill: none; stroke-width: 3; stroke: rgba(255, 255, 255, 0.53);" d="M 307.091 395.882 L 520.031 502.083"/>
    <path style="fill: none; stroke-width: 3; stroke: rgba(255, 255, 255, 0.53);" d="M 712.914 393.349 L 520.031 502.083"/>
    <path style="fill: none; stroke-width: 3; stroke: rgba(255, 255, 255, 0.53);" d="M 511.657 746.717 L 520.031 502.083"/>
  </g>
  <g transform="matrix(1.938982, 0, 0, 1.938982, 3569.535889, 80.613953)">
    <path d="M 256 28.739 L 256 134.613 L 151.466 195.276 L 151.466 195.297 L 60.244 142.359 L 60.244 142.339 L 256 28.739 Z" style="fill: rgb(72, 207, 244);"/>
    <path d="M 256 28.739 L 256 134.613 L 360.534 195.276 L 360.534 195.297 L 451.756 142.359 L 451.756 142.339 L 256 28.739 Z" style="fill: url(#gradient-1);"/>
    <path d="M 256 483.138 L 256 377.264 L 360.534 316.601 L 360.534 316.58 L 451.756 369.518 L 451.756 369.538 L 256 483.138 Z" style="fill: rgb(212, 255, 102);"/>
    <path d="M 60.244 369.518 L 60.244 142.339 L 151.466 195.296 L 151.466 316.58 Z" style="fill: rgb(221, 78, 65);"/>
    <path d="M 451.756 369.518 L 451.756 142.339 L 360.534 195.297 L 360.534 316.58 Z" style="fill: url(#gradient-2);"/>
    <path d="M 256 28.739 L 256 134.613 L 361.339 196.238 L 253.859 256.995 L 60.244 142.359 L 60.244 142.339 L 256 28.739 Z" style="fill: rgba(116, 167, 255, 0.639216);"/>
    <path d="M 256.256 483.261 L 256.256 377.387 L 151.486 316.587 L 60.23 369.537 L 256.256 483.261 Z" style="fill: rgb(248, 161, 10);"/>
    <path d="M 256.146 483.258 L 254.067 257.433 L 451.747 142.408 L 451.913 369.605 L 256.146 483.258 Z" style="stroke-width: 1px; fill: rgba(242, 242, 242, 0.39);"/>
  </g>
  <g>
    <g transform="matrix(1, 0, 0, 1, -0.009985, -0.086926)">
      <path d="M 132.446 732.109 L 132.446 291.613 L 335.279 409.478 L 335.279 614.581 L 132.446 732.109 Z" style="fill: rgb(222, 101, 71);"/>
      <path d="M 512.985 952.772 L 512.985 722.474 L 335.246 614.587 L 132.436 732.113 L 512.985 952.772 Z" style="fill: rgb(253, 188, 77);"/>
      <path d="M 688.748 291.613 L 688.748 732.109 L 891.581 614.244 L 891.581 409.141 L 688.748 291.613 Z" transform="matrix(-1, 0, 0, -1, 1580.328821, 1023.722101)" style="fill: rgb(105, 179, 86);"/>
      <path d="M 891.584 614.587 L 891.584 844.918 L 715.811 952.805 L 512.985 835.296 L 891.584 614.587 Z" style="fill: rgb(209, 233, 147);" transform="matrix(-1, 0, 0, -1, 1404.568879, 1567.391977)"/>
      <path d="M 512.985 71.402 L 512.985 301.7 L 335.246 409.587 L 132.436 292.061 L 512.985 71.402 Z" style="fill: rgb(128, 183, 250);"/>
      <path d="M 891.584 409.587 L 891.584 179.256 L 715.811 71.369 L 512.985 188.878 L 891.584 409.587 Z" transform="matrix(-1, 0, 0, -1, 1404.568879, 480.95587)" style="fill: rgb(69, 129, 225);"/>
    </g>
    <g transform="matrix(3.215432, 0, 0, 3.215432, -1124.264648, -1130.190796)">
      <path d="M 531.594 520.131 L 559.629 520.131 C 562.094 522.697 565.559 524.29 569.407 524.29 C 576.895 524.29 582.97 518.219 582.97 510.721 C 582.97 503.227 576.895 497.153 569.407 497.153 C 565.567 497.153 562.094 498.754 559.629 501.317 L 531.594 501.317 L 551.414 481.489 C 551.504 481.489 551.588 481.496 551.679 481.496 C 559.173 481.496 565.247 475.421 565.247 467.927 C 565.247 460.432 559.173 454.359 551.679 454.359 C 544.184 454.359 538.11 460.432 538.11 467.927 C 538.11 468.011 538.115 468.101 538.115 468.186 L 518.294 488.01 L 518.294 459.981 C 520.854 457.51 522.453 454.047 522.453 450.208 C 522.453 442.703 516.372 436.631 508.884 436.631 C 501.388 436.631 495.311 442.707 495.311 450.208 C 495.311 454.047 496.909 457.51 499.471 459.981 L 499.471 488.01 L 479.648 468.186 C 479.648 468.101 479.652 468.011 479.652 467.927 C 479.652 460.432 473.581 454.359 466.084 454.359 C 458.587 454.359 452.508 460.432 452.508 467.927 C 452.508 475.421 458.581 481.496 466.078 481.496 C 466.164 481.496 466.252 481.489 466.336 481.489 L 486.164 501.317 L 458.128 501.317 C 455.66 498.749 452.194 497.153 448.354 497.153 C 440.86 497.153 434.787 503.227 434.787 510.721 C 434.787 518.219 440.86 524.29 448.354 524.29 C 452.194 524.29 455.665 522.697 458.128 520.131 L 486.164 520.131 L 466.336 539.954 C 466.252 539.954 466.164 539.947 466.078 539.947 C 458.581 539.947 452.508 546.02 452.508 553.522 C 452.508 561.012 458.581 567.092 466.078 567.092 C 473.574 567.092 479.648 561.012 479.648 553.522 C 479.648 553.431 479.641 553.347 479.641 553.258 L 499.463 533.432 L 499.463 561.47 C 496.903 563.935 495.306 567.398 495.306 571.245 C 495.306 578.74 501.384 584.812 508.88 584.812 C 516.368 584.812 522.445 578.74 522.445 571.245 C 522.445 567.404 520.847 563.935 518.288 561.47 L 518.288 533.432 L 538.11 553.258 C 538.11 553.347 538.104 553.426 538.104 553.522 C 538.104 561.012 544.176 567.092 551.672 567.092 C 559.167 567.092 565.241 561.012 565.241 553.522 C 565.241 546.02 559.167 539.947 551.672 539.947 C 551.581 539.947 551.5 539.954 551.409 539.954 Z" style="fill: rgb(255, 255, 255); paint-order: stroke; stroke: rgb(47, 47, 47); stroke-width: 20.7915;"/>
    </g>
  </g>
  <path d="M 510.649 521.464" style="stroke: rgb(0, 0, 0); fill: rgb(255, 255, 255);"/>
  <g transform="matrix(1, 0, 0, 1, 1462.056519, 83.705727)">
    <path d="M 132.446 732.109 L 132.446 291.613 L 335.279 409.478 L 335.279 614.581 L 132.446 732.109 Z" style="fill: rgb(222, 101, 71);"/>
    <path d="M 512.985 952.772 L 512.985 722.474 L 335.246 614.587 L 132.436 732.113 L 512.985 952.772 Z" style="fill: rgb(232, 188, 84);"/>
    <path d="M 688.748 291.613 L 688.748 732.109 L 891.581 614.244 L 891.581 409.141 L 688.748 291.613 Z" transform="matrix(-1, 0, 0, -1, 1580.328821, 1023.722101)" style="fill: rgb(105, 179, 86);"/>
    <path d="M 891.584 614.587 L 891.584 844.918 L 715.811 952.805 L 512.985 835.296 L 891.584 614.587 Z" style="fill: rgb(209, 233, 147);" transform="matrix(-1, 0, 0, -1, 1404.568879, 1567.391977)"/>
    <path d="M 512.985 71.402 L 512.985 301.7 L 335.246 409.587 L 132.436 292.061 L 512.985 71.402 Z" style="fill: rgb(128, 183, 250);"/>
    <path d="M 891.584 409.587 L 891.584 179.256 L 715.811 71.369 L 512.985 188.878 L 891.584 409.587 Z" transform="matrix(-1, 0, 0, -1, 1404.568879, 480.95587)" style="fill: rgb(69, 129, 225);"/>
  </g>
</svg>