<?xml version="1.0" encoding="utf-8"?>
<!-- Generator: Adobe Illustrator 16.0.0, SVG Export Plug-In . SVG Version: 6.00 Build 0)  -->
<!DOCTYPE svg PUBLIC "-//W3C//DTD SVG 1.1//EN" "http://www.w3.org/Graphics/SVG/1.1/DTD/svg11.dtd">
<svg version="1.1" xmlns="http://www.w3.org/2000/svg" xmlns:xlink="http://www.w3.org/1999/xlink" x="0px" y="0px"
	 width="90.985px" height="90.984px" viewBox="0 0 90.985 90.984" enable-background="new 0 0 90.985 90.984" xml:space="preserve">
<g id="Background">
</g>
<g id="Icons">
	<path fill="#CC6666" d="M80.115,0H10.87C4.876,0,0,4.875,0,10.869v69.245c0,5.994,4.876,10.87,10.87,10.87h69.245
		c5.994,0,10.87-4.876,10.87-10.87V10.869C90.985,4.875,86.109,0,80.115,0z"/>
	<g>
		<defs>
			<path id="SVGID_101_" d="M80.115,0H10.87C4.876,0,0,4.875,0,10.869v69.245c0,5.994,4.876,10.87,10.87,10.87h69.245
				c5.994,0,10.87-4.876,10.87-10.87V10.869C90.985,4.875,86.109,0,80.115,0z"/>
		</defs>
		<clipPath id="SVGID_2_">
			<use xlink:href="#SVGID_101_"  overflow="visible"/>
		</clipPath>
		<g opacity="0.65" clip-path="url(#SVGID_2_)">
			<path fill="#939598" d="M45.483,42.65c-2.801,0-5.073-2.271-5.073-5.073c0-2.801,2.272-5.072,5.073-5.071
				c2.802-0.001,5.073,2.271,5.073,5.072C50.556,40.379,48.285,42.649,45.483,42.65z M45.484,25.365
				C38.323,25.366,32.52,31.17,32.52,38.329s12.963,28.745,12.963,28.745s12.963-21.585,12.964-28.745
				C58.447,31.17,52.643,25.366,45.484,25.365z"/>
			<path fill="#939598" d="M45.768,42.935c-2.801,0-5.073-2.271-5.073-5.073c0-2.801,2.272-5.073,5.073-5.072
				c2.802-0.001,5.073,2.271,5.072,5.072C50.841,40.662,48.569,42.934,45.768,42.935z M45.768,25.648
				c-7.16,0.001-12.964,5.806-12.964,12.965c0,7.158,12.963,28.745,12.963,28.745s12.963-21.586,12.964-28.746
				C58.731,31.453,52.927,25.649,45.768,25.648z"/>
			<path fill="#939598" d="M46.052,43.219c-2.801,0-5.073-2.271-5.073-5.073c0-2.801,2.272-5.073,5.073-5.071
				c2.802-0.001,5.073,2.271,5.073,5.072C51.125,40.947,48.854,43.218,46.052,43.219z M46.052,25.934
				c-7.16,0.001-12.963,5.805-12.963,12.965c0,7.157,12.963,28.744,12.963,28.744s12.963-21.585,12.964-28.746
				C59.016,31.738,53.212,25.935,46.052,25.934z"/>
			<path fill="#939598" d="M46.336,43.503c-2.801,0-5.073-2.271-5.073-5.073c0-2.801,2.272-5.072,5.073-5.072
				c2.802,0,5.073,2.271,5.072,5.073C51.41,41.231,49.138,43.503,46.336,43.503z M46.337,26.218c-7.16,0-12.964,5.805-12.963,12.965
				c0,7.158,12.963,28.745,12.963,28.745S59.3,46.341,59.301,39.181C59.3,32.022,53.496,26.219,46.337,26.218z"/>
			<path fill="#939598" d="M46.621,43.787c-2.801,0-5.073-2.271-5.073-5.073c0-2.801,2.272-5.072,5.073-5.071
				c2.802,0,5.073,2.271,5.073,5.072C51.694,41.516,49.422,43.787,46.621,43.787z M46.622,26.502
				c-7.161,0.001-12.964,5.806-12.964,12.965c0,7.158,12.964,28.745,12.964,28.745s12.962-21.586,12.963-28.746
				C59.584,32.308,53.781,26.503,46.622,26.502z"/>
			<path fill="#939598" d="M46.905,44.072c-2.801,0-5.073-2.271-5.073-5.073c0-2.801,2.272-5.073,5.073-5.072
				c2.802-0.001,5.074,2.271,5.072,5.072C51.979,41.8,49.708,44.071,46.905,44.072z M46.906,26.786
				c-7.16,0.001-12.964,5.806-12.963,12.965c0,7.159,12.963,28.745,12.963,28.745S59.869,46.91,59.869,39.75
				C59.869,32.591,54.065,26.787,46.906,26.786z"/>
			<path fill="#939598" d="M47.19,44.356c-2.801,0-5.073-2.271-5.073-5.073c0-2.801,2.272-5.073,5.073-5.072
				c2.802,0,5.073,2.271,5.072,5.073C52.263,42.084,49.991,44.355,47.19,44.356z M47.19,27.07
				c-7.161,0.001-12.964,5.807-12.964,12.966c0,7.157,12.963,28.744,12.963,28.744s12.963-21.586,12.964-28.746
				C60.153,32.876,54.349,27.072,47.19,27.07z"/>
			<path fill="#939598" d="M47.474,44.641c-2.801,0-5.073-2.271-5.073-5.073c0-2.801,2.272-5.072,5.073-5.072
				c2.802,0,5.073,2.271,5.073,5.073C52.547,42.369,50.276,44.641,47.474,44.641z M47.475,27.355
				c-7.16,0-12.964,5.805-12.963,12.964c0,7.159,12.963,28.745,12.963,28.745s12.962-21.586,12.964-28.745
				C60.438,33.16,54.634,27.355,47.475,27.355z"/>
			<path fill="#939598" d="M47.758,44.925c-2.801,0-5.073-2.271-5.073-5.073c0-2.801,2.272-5.072,5.073-5.071
				c2.802-0.001,5.073,2.271,5.072,5.072C52.832,42.653,50.56,44.924,47.758,44.925z M47.759,27.64
				c-7.161,0.001-12.964,5.806-12.964,12.965c0,7.158,12.963,28.745,12.963,28.745s12.963-21.586,12.964-28.746
				C60.722,33.444,54.918,27.641,47.759,27.64z"/>
			<path fill="#939598" d="M48.043,45.21c-2.801,0-5.073-2.271-5.073-5.073c0-2.801,2.272-5.073,5.073-5.072
				c2.802,0,5.073,2.271,5.073,5.073C53.116,42.938,50.845,45.209,48.043,45.21z M48.043,27.924
				c-7.161,0.001-12.964,5.806-12.963,12.965c0,7.158,12.963,28.745,12.963,28.745s12.962-21.586,12.964-28.746
				C61.006,33.729,55.203,27.925,48.043,27.924z"/>
			<path fill="#939598" d="M48.327,45.493c-2.801,0-5.073-2.27-5.073-5.073c0-2.801,2.272-5.072,5.073-5.071
				c2.802,0,5.073,2.271,5.073,5.073C53.4,43.222,51.129,45.493,48.327,45.493z M48.328,28.208
				c-7.161,0.001-12.964,5.806-12.964,12.966c0,7.157,12.963,28.745,12.963,28.745s12.963-21.587,12.964-28.747
				C61.291,34.014,55.487,28.21,48.328,28.208z"/>
			<path fill="#939598" d="M48.612,45.778c-2.801,0-5.073-2.271-5.073-5.072s2.272-5.073,5.073-5.073
				c2.802,0,5.073,2.271,5.073,5.073C53.685,43.507,51.414,45.777,48.612,45.778z M48.612,28.493
				c-7.161,0.001-12.964,5.805-12.964,12.964c0.001,7.159,12.963,28.745,12.963,28.745s12.963-21.585,12.964-28.745
				C61.575,34.298,55.771,28.494,48.612,28.493z"/>
			<path fill="#939598" d="M48.896,46.063c-2.801,0-5.073-2.271-5.073-5.073c0-2.801,2.272-5.072,5.073-5.071
				c2.803-0.001,5.074,2.271,5.073,5.072C53.969,43.791,51.699,46.062,48.896,46.063z M48.897,28.777
				c-7.161,0.001-12.964,5.806-12.964,12.965c0,7.158,12.963,28.745,12.963,28.745S61.859,48.901,61.86,41.741
				C61.859,34.582,56.056,28.778,48.897,28.777z"/>
			<path fill="#939598" d="M49.181,46.348c-2.801,0-5.073-2.271-5.073-5.073c0-2.801,2.272-5.073,5.073-5.072
				c2.802,0,5.073,2.271,5.073,5.073C54.253,44.075,51.982,46.347,49.181,46.348z M49.181,29.062
				c-7.161,0.001-12.964,5.806-12.964,12.965c0,7.158,12.963,28.745,12.963,28.745s12.963-21.586,12.964-28.746
				C62.144,34.866,56.34,29.063,49.181,29.062z"/>
			<path fill="#939598" d="M49.465,46.631c-2.801,0-5.073-2.27-5.073-5.073c0-2.801,2.272-5.072,5.073-5.071
				c2.802,0,5.073,2.271,5.073,5.072C54.538,44.359,52.267,46.631,49.465,46.631z M49.465,29.346
				c-7.16,0.001-12.964,5.806-12.963,12.965c0,7.158,12.963,28.745,12.963,28.745S62.428,49.47,62.429,42.31
				C62.428,35.151,56.625,29.348,49.465,29.346z"/>
			<path fill="#939598" d="M49.749,46.916c-2.801,0-5.073-2.271-5.073-5.073c0-2.801,2.272-5.072,5.073-5.071
				c2.802-0.001,5.073,2.271,5.073,5.072C54.822,44.645,52.551,46.915,49.749,46.916z M49.75,29.631
				c-7.161,0.001-12.964,5.805-12.964,12.965c0,7.158,12.963,28.744,12.963,28.744s12.963-21.585,12.964-28.745
				C62.713,35.436,56.909,29.632,49.75,29.631z"/>
			<path fill="#939598" d="M50.034,47.2c-2.801,0-5.073-2.271-5.073-5.073c0-2.801,2.272-5.073,5.073-5.072
				c2.802,0,5.073,2.271,5.073,5.073C55.107,44.929,52.835,47.2,50.034,47.2z M50.034,29.915
				c-7.16,0.001-12.964,5.806-12.964,12.965c0,7.157,12.963,28.745,12.963,28.745s12.963-21.586,12.964-28.747
				C62.997,35.72,57.193,29.916,50.034,29.915z"/>
			<path fill="#939598" d="M50.318,47.484c-2.801,0-5.073-2.27-5.073-5.073c0-2.801,2.272-5.072,5.073-5.071
				c2.802,0,5.073,2.271,5.072,5.073C55.391,45.213,53.12,47.484,50.318,47.484z M50.319,30.199
				c-7.16,0.001-12.964,5.806-12.964,12.965c0,7.158,12.963,28.745,12.963,28.745s12.963-21.586,12.964-28.746
				C63.282,36.005,57.478,30.201,50.319,30.199z"/>
			<path fill="#939598" d="M50.603,47.77c-2.801,0-5.073-2.271-5.073-5.073c0-2.801,2.272-5.073,5.073-5.072
				c2.802-0.001,5.073,2.271,5.073,5.072C55.676,45.497,53.404,47.77,50.603,47.77z M50.603,30.483
				c-7.16,0.001-12.964,5.806-12.964,12.965c0,7.158,12.964,28.745,12.964,28.745s12.963-21.586,12.964-28.746
				C63.566,36.289,57.762,30.484,50.603,30.483z"/>
			<path fill="#939598" d="M50.887,48.054c-2.801,0-5.073-2.271-5.073-5.073c0-2.801,2.272-5.072,5.073-5.071
				c2.803-0.001,5.074,2.27,5.073,5.072C55.96,45.782,53.689,48.052,50.887,48.054z M50.888,30.769
				c-7.16,0.001-12.964,5.805-12.964,12.965c0,7.158,12.963,28.744,12.963,28.744S63.85,50.893,63.851,43.732
				C63.851,36.573,58.047,30.77,50.888,30.769z"/>
			<path fill="#939598" d="M51.172,48.339c-2.801,0-5.073-2.271-5.073-5.073s2.272-5.073,5.073-5.073
				c2.802,0,5.073,2.271,5.072,5.073C56.245,46.066,53.973,48.338,51.172,48.339z M51.172,31.053
				c-7.16,0-12.964,5.806-12.963,12.965c0,7.158,12.963,28.745,12.963,28.745s12.963-21.587,12.964-28.747
				C64.135,36.857,58.331,31.054,51.172,31.053z"/>
			<path fill="#939598" d="M51.456,48.622c-2.801,0-5.073-2.271-5.073-5.073c0-2.801,2.272-5.072,5.073-5.071
				c2.802,0,5.073,2.271,5.073,5.072C56.529,46.351,54.257,48.622,51.456,48.622z M51.457,31.337
				c-7.161,0.001-12.964,5.806-12.964,12.965c0,7.158,12.964,28.745,12.964,28.745S64.419,51.461,64.42,44.301
				C64.419,37.143,58.616,31.338,51.457,31.337z"/>
			<path fill="#939598" d="M51.74,48.907c-2.801,0-5.073-2.271-5.073-5.073c0-2.801,2.271-5.073,5.073-5.072
				c2.802-0.001,5.073,2.271,5.072,5.072C56.813,46.635,54.542,48.906,51.74,48.907z M51.741,31.621
				c-7.16,0.001-12.964,5.806-12.963,12.965c0,7.159,12.963,28.745,12.963,28.745s12.963-21.586,12.964-28.746
				C64.704,37.426,58.9,31.622,51.741,31.621z"/>
			<path fill="#939598" d="M52.025,49.191c-2.801,0-5.073-2.271-5.073-5.073c0-2.801,2.272-5.072,5.073-5.071
				c2.802-0.001,5.073,2.271,5.073,5.072C57.098,46.92,54.827,49.19,52.025,49.191z M52.025,31.906
				c-7.161,0.001-12.964,5.806-12.964,12.965c0,7.158,12.963,28.744,12.963,28.744S64.988,52.03,64.989,44.869
				C64.989,37.711,59.185,31.907,52.025,31.906z"/>
			<path fill="#939598" d="M52.309,49.476c-2.801,0-5.073-2.271-5.073-5.073c0-2.801,2.272-5.072,5.073-5.072
				c2.802,0,5.073,2.271,5.072,5.073C57.382,47.204,55.111,49.476,52.309,49.476z M52.31,32.19c-7.161,0-12.964,5.805-12.964,12.965
				c0,7.158,12.963,28.745,12.963,28.745s12.963-21.587,12.964-28.746C65.272,37.995,59.469,32.191,52.31,32.19z"/>
			<path fill="#939598" d="M52.594,49.76c-2.801,0-5.073-2.271-5.073-5.073c0-2.801,2.272-5.072,5.073-5.071
				c2.802-0.001,5.073,2.271,5.073,5.072C57.667,47.488,55.396,49.76,52.594,49.76z M52.594,32.475
				c-7.16,0.001-12.964,5.806-12.964,12.965c0,7.158,12.963,28.745,12.963,28.745s12.963-21.586,12.964-28.746
				C65.557,38.28,59.753,32.476,52.594,32.475z"/>
			<path fill="#939598" d="M52.878,50.045c-2.801,0-5.073-2.271-5.073-5.073c0-2.801,2.272-5.072,5.073-5.072
				c2.803,0,5.074,2.271,5.073,5.073C57.951,47.773,55.68,50.043,52.878,50.045z M52.879,32.76c-7.161,0-12.964,5.805-12.964,12.964
				c0,7.159,12.963,28.745,12.963,28.745s12.962-21.586,12.964-28.746C65.841,38.563,60.038,32.76,52.879,32.76z"/>
			<path fill="#939598" d="M53.163,50.329c-2.801,0-5.073-2.271-5.073-5.073c0-2.801,2.272-5.073,5.073-5.072
				c2.802,0,5.073,2.271,5.073,5.073C58.235,48.057,55.964,50.328,53.163,50.329z M53.163,33.043
				c-7.161,0.001-12.964,5.807-12.964,12.966c0,7.157,12.963,28.745,12.963,28.745s12.963-21.587,12.964-28.747
				C66.126,38.849,60.322,33.045,53.163,33.043z"/>
			<path fill="#939598" d="M53.447,50.613c-2.801,0-5.073-2.271-5.073-5.072s2.271-5.073,5.072-5.072
				c2.802,0,5.073,2.271,5.073,5.072C58.52,48.342,56.249,50.613,53.447,50.613z M53.447,33.328
				c-7.161,0.001-12.964,5.805-12.963,12.964c0,7.159,12.963,28.745,12.963,28.745S66.41,53.452,66.411,46.292
				C66.41,39.133,60.606,33.329,53.447,33.328z"/>
			<path fill="#939598" d="M53.731,50.897c-2.801,0-5.073-2.271-5.073-5.073c0-2.801,2.272-5.072,5.073-5.071
				c2.802-0.001,5.073,2.271,5.073,5.072C58.804,48.626,56.533,50.897,53.731,50.897z M53.732,33.612
				c-7.161,0.001-12.964,5.806-12.964,12.965c0,7.158,12.963,28.745,12.963,28.745s12.963-21.586,12.964-28.746
				C66.694,39.417,60.891,33.613,53.732,33.612z"/>
			<path fill="#939598" d="M54.016,51.183c-2.801,0-5.073-2.271-5.073-5.073c0-2.801,2.272-5.072,5.073-5.072
				c2.802,0,5.073,2.271,5.073,5.073C59.088,48.911,56.817,51.182,54.016,51.183z M54.016,33.896
				c-7.161,0.001-12.964,5.806-12.964,12.965c0.001,7.159,12.963,28.745,12.963,28.745S66.979,54.021,66.98,46.86
				C66.979,39.701,61.175,33.897,54.016,33.896z"/>
			<path fill="#939598" d="M54.3,51.467c-2.801,0-5.073-2.271-5.073-5.073c0-2.802,2.272-5.073,5.073-5.072
				c2.802,0,5.073,2.271,5.073,5.073C59.373,49.194,57.102,51.467,54.3,51.467z M54.301,34.181
				c-7.161,0.001-12.964,5.806-12.964,12.966c0,7.157,12.963,28.745,12.963,28.745s12.963-21.587,12.964-28.747
				C67.263,39.986,61.459,34.183,54.301,34.181z"/>
			<path fill="#939598" d="M54.584,51.751c-2.801,0-5.073-2.271-5.073-5.073c0-2.801,2.272-5.072,5.073-5.071
				c2.802-0.001,5.073,2.271,5.073,5.072C59.657,49.479,57.386,51.751,54.584,51.751z M54.585,34.466
				c-7.16,0.001-12.964,5.805-12.964,12.965c0,7.158,12.963,28.744,12.963,28.744S67.548,54.59,67.549,47.43
				C67.548,40.271,61.744,34.467,54.585,34.466z"/>
			<path fill="#939598" d="M54.869,52.035c-2.801,0-5.073-2.271-5.073-5.073c0-2.801,2.272-5.072,5.073-5.071
				c2.803-0.001,5.074,2.271,5.073,5.072C59.942,49.764,57.671,52.034,54.869,52.035z M54.87,34.75
				c-7.161,0.001-12.964,5.806-12.964,12.965c0,7.158,12.963,28.745,12.963,28.745s12.963-21.586,12.964-28.746
				C67.833,40.555,62.029,34.751,54.87,34.75z"/>
			<path fill="#939598" d="M55.153,52.32c-2.801,0-5.073-2.271-5.073-5.073c0-2.801,2.272-5.073,5.073-5.072
				c2.802,0,5.073,2.271,5.072,5.073C60.227,50.048,57.955,52.319,55.153,52.32z M55.154,35.034
				c-7.16,0.001-12.964,5.806-12.964,12.965c0,7.158,12.963,28.745,12.963,28.745s12.963-21.586,12.964-28.746
				C68.117,40.84,62.313,35.036,55.154,35.034z"/>
			<path fill="#939598" d="M55.438,52.604c-2.801,0-5.073-2.271-5.073-5.073c0-2.801,2.272-5.073,5.073-5.072
				c2.802,0,5.073,2.271,5.073,5.072C60.511,50.332,58.239,52.604,55.438,52.604z M55.438,35.318
				c-7.16,0.001-12.964,5.806-12.963,12.965c0,7.158,12.963,28.745,12.963,28.745s12.963-21.586,12.964-28.746
				C68.401,41.124,62.598,35.319,55.438,35.318z"/>
			<path fill="#939598" d="M55.722,52.889c-2.801,0-5.073-2.271-5.073-5.073c0-2.801,2.271-5.072,5.073-5.071
				c2.802-0.001,5.073,2.271,5.072,5.072C60.795,50.617,58.524,52.888,55.722,52.889z M55.723,35.604
				c-7.16,0.001-12.964,5.805-12.964,12.965c0,7.158,12.963,28.744,12.963,28.744s12.963-21.585,12.964-28.745
				C68.686,41.408,62.882,35.604,55.723,35.604z"/>
			<path fill="#939598" d="M56.007,53.174c-2.801,0-5.073-2.271-5.073-5.073c0-2.801,2.272-5.073,5.073-5.073
				c2.802,0,5.073,2.272,5.073,5.073C61.08,50.901,58.808,53.173,56.007,53.174z M56.007,35.888c-7.16,0-12.963,5.806-12.963,12.965
				c0,7.158,12.963,28.745,12.963,28.745S68.97,56.011,68.971,48.851C68.97,41.692,63.167,35.889,56.007,35.888z"/>
			<path fill="#939598" d="M56.291,53.457c-2.801,0-5.073-2.27-5.073-5.073c0-2.801,2.272-5.072,5.073-5.071
				c2.802,0,5.073,2.271,5.073,5.072C61.364,51.186,59.092,53.457,56.291,53.457z M56.292,36.172
				c-7.16,0.001-12.964,5.806-12.964,12.965c0,7.158,12.964,28.745,12.964,28.745s12.963-21.586,12.963-28.746
				C69.254,41.978,63.451,36.174,56.292,36.172z"/>
			<path fill="#939598" d="M56.576,53.742c-2.801,0-5.073-2.271-5.073-5.073c0-2.801,2.271-5.072,5.073-5.072
				c2.802-0.001,5.073,2.271,5.073,5.073C61.648,51.471,59.377,53.742,56.576,53.742z M56.576,36.457
				c-7.16,0-12.963,5.805-12.963,12.964s12.963,28.745,12.963,28.745S69.539,56.58,69.54,49.42
				C69.539,42.262,63.735,36.457,56.576,36.457z"/>
			<path fill="#939598" d="M56.86,54.026c-2.801,0-5.073-2.271-5.073-5.073c0-2.801,2.271-5.072,5.072-5.071
				c2.803-0.001,5.074,2.27,5.073,5.072C61.933,51.755,59.662,54.025,56.86,54.026z M56.86,36.741
				c-7.161,0.001-12.964,5.806-12.963,12.965c0,7.158,12.963,28.745,12.963,28.745s12.962-21.586,12.963-28.746
				C69.823,42.546,64.02,36.742,56.86,36.741z"/>
			<path fill="#939598" d="M57.145,54.312c-2.801,0-5.073-2.271-5.073-5.073c0-2.801,2.272-5.073,5.073-5.073
				c2.802,0,5.073,2.271,5.072,5.073C62.217,52.039,59.946,54.311,57.145,54.312z M57.145,37.025
				c-7.161,0-12.964,5.806-12.964,12.965c0,7.158,12.963,28.745,12.963,28.745s12.963-21.587,12.964-28.746
				C70.108,42.83,64.304,37.026,57.145,37.025z"/>
			<path fill="#939598" d="M57.429,54.595c-2.801,0-5.072-2.271-5.072-5.072s2.271-5.073,5.072-5.072
				c2.802,0,5.073,2.271,5.072,5.072C62.502,52.323,60.23,54.595,57.429,54.595z M57.43,37.31
				c-7.161,0.001-12.964,5.806-12.964,12.965c0,7.158,12.964,28.745,12.964,28.745s12.962-21.586,12.963-28.746
				C70.393,43.115,64.589,37.311,57.43,37.31z"/>
			<path fill="#939598" d="M57.713,54.88c-2.801,0-5.073-2.271-5.073-5.073c0-2.801,2.271-5.072,5.073-5.072
				c2.802,0,5.073,2.271,5.072,5.073C62.786,52.608,60.515,54.879,57.713,54.88z M57.714,37.595
				c-7.161,0-12.964,5.805-12.964,12.964c0,7.159,12.963,28.745,12.963,28.745s12.963-21.586,12.964-28.745
				C70.676,43.398,64.873,37.595,57.714,37.595z"/>
			<path fill="#939598" d="M57.998,55.164c-2.801,0-5.073-2.271-5.073-5.073c0-2.801,2.272-5.072,5.073-5.071
				c2.802-0.001,5.073,2.271,5.072,5.072C63.07,52.892,60.799,55.163,57.998,55.164z M57.998,37.878
				c-7.16,0.002-12.964,5.807-12.964,12.966c0,7.158,12.963,28.745,12.963,28.745s12.963-21.586,12.964-28.747
				C70.961,43.684,65.157,37.88,57.998,37.878z"/>
			<path fill="#939598" d="M58.282,55.448c-2.801,0-5.073-2.271-5.073-5.072s2.271-5.073,5.072-5.072
				c2.802,0,5.073,2.271,5.073,5.073C63.354,53.177,61.083,55.448,58.282,55.448z M58.283,38.163
				c-7.161,0.001-12.964,5.805-12.964,12.965c0,7.158,12.963,28.745,12.963,28.745s12.963-21.586,12.964-28.746
				C71.245,43.968,65.441,38.164,58.283,38.163z"/>
			<path fill="#939598" d="M58.566,55.732c-2.801,0-5.073-2.271-5.073-5.073c0-2.801,2.271-5.071,5.073-5.071
				c2.802-0.001,5.073,2.271,5.073,5.072C63.639,53.461,61.368,55.732,58.566,55.732z M58.567,38.447
				c-7.16,0.001-12.964,5.806-12.964,12.965s12.963,28.745,12.963,28.745S71.53,58.571,71.531,51.411
				C71.53,44.253,65.726,38.448,58.567,38.447z"/>
			<path fill="#939598" d="M58.851,56.018c-2.801,0-5.073-2.271-5.073-5.073c0-2.801,2.271-5.072,5.072-5.072
				c2.803,0,5.074,2.271,5.073,5.073C63.923,53.746,61.653,56.016,58.851,56.018z M58.851,38.732
				c-7.161,0-12.964,5.805-12.963,12.964c0,7.159,12.963,28.745,12.963,28.745s12.963-21.585,12.964-28.745
				C71.814,44.537,66.01,38.732,58.851,38.732z"/>
			<path fill="#939598" d="M59.135,56.302c-2.801,0-5.073-2.271-5.073-5.073c0-2.801,2.272-5.073,5.073-5.072
				c2.802,0,5.073,2.271,5.073,5.073C64.208,54.029,61.937,56.302,59.135,56.302z M59.136,39.016
				c-7.161,0.001-12.964,5.807-12.964,12.966c0,7.157,12.963,28.745,12.963,28.745S72.098,59.14,72.1,51.979
				C72.099,44.821,66.294,39.018,59.136,39.016z"/>
			<path fill="#939598" d="M59.419,56.586c-2.801,0-5.072-2.271-5.072-5.072s2.271-5.073,5.072-5.072
				c2.802,0,5.073,2.271,5.073,5.072C64.493,54.314,62.221,56.586,59.419,56.586z M59.42,39.301
				c-7.161,0.001-12.964,5.805-12.964,12.965C46.458,59.424,59.42,81.01,59.42,81.01s12.962-21.585,12.964-28.745
				C72.383,45.105,66.58,39.302,59.42,39.301z"/>
			<path fill="#939598" d="M59.704,56.87c-2.801,0-5.073-2.271-5.073-5.073c0-2.801,2.272-5.072,5.073-5.071
				c2.802-0.001,5.073,2.271,5.073,5.072C64.777,54.599,62.506,56.87,59.704,56.87z M59.705,39.585
				c-7.161,0.001-12.964,5.806-12.964,12.965c0,7.158,12.963,28.745,12.963,28.745s12.963-21.586,12.964-28.746
				C72.667,45.39,66.864,39.586,59.705,39.585z"/>
			<path fill="#939598" d="M59.988,57.155c-2.801,0-5.073-2.271-5.073-5.073c0-2.801,2.272-5.072,5.073-5.071
				c2.802-0.001,5.073,2.27,5.073,5.072C65.062,54.883,62.79,57.154,59.988,57.155z M59.989,39.869
				c-7.16,0.002-12.964,5.806-12.964,12.965c0,7.159,12.963,28.745,12.963,28.745s12.963-21.585,12.964-28.746
				C72.952,45.675,67.148,39.871,59.989,39.869z"/>
			<path fill="#939598" d="M60.273,57.439c-2.801,0-5.073-2.271-5.073-5.073c0-2.801,2.272-5.073,5.073-5.072
				c2.802,0,5.073,2.271,5.073,5.072C65.346,55.167,63.074,57.439,60.273,57.439z M60.273,40.153
				c-7.161,0.001-12.964,5.806-12.964,12.965c0,7.158,12.963,28.746,12.963,28.746s12.963-21.587,12.964-28.747
				C73.236,45.959,67.433,40.155,60.273,40.153z"/>
			<path fill="#939598" d="M60.557,57.724c-2.801,0-5.073-2.271-5.073-5.073c0-2.801,2.271-5.071,5.073-5.071
				c2.801-0.001,5.073,2.271,5.073,5.072C65.63,55.452,63.359,57.724,60.557,57.724z M60.558,40.438
				c-7.16,0.001-12.963,5.806-12.963,12.965s12.963,28.744,12.963,28.744s12.963-21.585,12.964-28.745
				C73.521,46.244,67.717,40.439,60.558,40.438z"/>
			<path fill="#939598" d="M60.842,58.009c-2.801,0-5.073-2.271-5.073-5.073c0-2.801,2.272-5.073,5.072-5.072
				c2.803-0.001,5.074,2.271,5.073,5.072C65.915,55.736,63.644,58.007,60.842,58.009z M60.842,40.723
				c-7.16,0.001-12.963,5.806-12.963,12.965c0,7.158,12.963,28.745,12.963,28.745s12.963-21.586,12.964-28.746
				C73.805,46.527,68.001,40.724,60.842,40.723z"/>
			<path fill="#939598" d="M61.126,58.293c-2.801,0-5.073-2.271-5.073-5.073c0-2.801,2.272-5.073,5.073-5.072
				c2.802,0,5.073,2.271,5.072,5.073C66.199,56.021,63.928,58.292,61.126,58.293z M61.126,41.007
				c-7.16,0.001-12.964,5.806-12.963,12.966c0,7.157,12.963,28.744,12.963,28.744S74.089,61.131,74.09,53.971
				C74.09,46.813,68.286,41.009,61.126,41.007z"/>
			<path fill="#939598" d="M61.411,58.577c-2.801,0-5.073-2.271-5.073-5.072c0-2.802,2.271-5.073,5.073-5.073
				c2.801,0,5.073,2.271,5.072,5.073C66.484,56.306,64.212,58.577,61.411,58.577z M61.411,41.292
				c-7.161,0-12.963,5.805-12.963,12.964s12.963,28.745,12.963,28.745s12.962-21.586,12.964-28.746
				C74.375,47.097,68.571,41.292,61.411,41.292z"/>
			<path fill="#939598" d="M61.695,58.861c-2.801,0-5.073-2.271-5.073-5.073c0-2.801,2.271-5.072,5.073-5.071
				c2.802-0.001,5.073,2.27,5.072,5.072C66.768,56.59,64.497,58.86,61.695,58.861z M61.696,41.576
				c-7.161,0.001-12.964,5.806-12.964,12.965c0,7.158,12.963,28.745,12.963,28.745S74.658,61.7,74.659,54.54
				C74.658,47.381,68.854,41.577,61.696,41.576z"/>
			<path fill="#939598" d="M61.979,59.146c-2.801,0-5.073-2.271-5.073-5.073c0-2.801,2.272-5.073,5.073-5.072
				c2.802-0.001,5.073,2.271,5.073,5.072C67.052,56.874,64.781,59.146,61.979,59.146z M61.98,41.86
				c-7.16,0.001-12.964,5.806-12.964,12.965c0,7.159,12.963,28.745,12.963,28.745s12.963-21.586,12.964-28.746
				C74.943,47.665,69.139,41.861,61.98,41.86z"/>
			<path fill="#939598" d="M62.264,59.43c-2.801,0-5.073-2.27-5.073-5.072c0-2.802,2.271-5.073,5.072-5.072
				c2.802,0,5.073,2.271,5.073,5.072C67.336,57.158,65.065,59.43,62.264,59.43z M62.265,42.145
				C55.104,42.146,49.3,47.95,49.301,55.109c0,7.158,12.963,28.745,12.963,28.745s12.963-21.586,12.964-28.746
				C75.227,47.95,69.423,42.146,62.265,42.145z"/>
			<path fill="#939598" d="M62.548,59.715c-2.802,0-5.073-2.271-5.073-5.073c0-2.801,2.271-5.072,5.073-5.072
				c2.802,0,5.073,2.271,5.073,5.073C67.621,57.443,65.35,59.715,62.548,59.715z M62.549,42.43c-7.161,0-12.964,5.805-12.964,12.964
				s12.963,28.745,12.963,28.745s12.963-21.586,12.964-28.745C75.512,48.234,69.708,42.43,62.549,42.43z"/>
			<path fill="#939598" d="M62.833,59.999c-2.801,0-5.073-2.271-5.073-5.073c0-2.801,2.272-5.072,5.072-5.071
				c2.803-0.001,5.074,2.27,5.073,5.072C67.905,57.728,65.635,59.998,62.833,59.999z M62.833,42.714
				c-7.161,0.001-12.964,5.806-12.963,12.965c0,7.158,12.963,28.745,12.963,28.745s12.962-21.586,12.964-28.746
				C75.796,48.52,69.992,42.715,62.833,42.714z"/>
			<path fill="#939598" d="M63.117,60.284c-2.801,0-5.073-2.271-5.073-5.073c0-2.801,2.272-5.073,5.073-5.072
				c2.802,0,5.073,2.271,5.073,5.073C68.19,58.012,65.919,60.283,63.117,60.284z M63.118,42.998
				c-7.161,0.001-12.964,5.806-12.964,12.965c0,7.158,12.963,28.745,12.963,28.745S76.08,63.122,76.082,55.962
				C76.081,48.803,70.276,42.999,63.118,42.998z"/>
			<path fill="#939598" d="M63.401,60.567c-2.801,0-5.073-2.271-5.073-5.073c0-2.801,2.272-5.071,5.073-5.071
				c2.802,0,5.073,2.271,5.073,5.073C68.474,58.296,66.203,60.567,63.401,60.567z M63.402,43.282
				c-7.16,0.001-12.964,5.806-12.964,12.965s12.963,28.745,12.963,28.745s12.963-21.586,12.964-28.746
				C76.365,49.088,70.561,43.283,63.402,43.282z"/>
			<path fill="#939598" d="M63.686,60.853c-2.801,0-5.073-2.271-5.073-5.073c0-2.801,2.271-5.072,5.073-5.071
				c2.803-0.001,5.073,2.27,5.073,5.072C68.759,58.581,66.488,60.852,63.686,60.853z M63.687,43.567
				c-7.161,0.001-12.964,5.805-12.964,12.964s12.963,28.745,12.963,28.745S76.649,63.691,76.65,56.531
				C76.649,49.372,70.845,43.568,63.687,43.567z"/>
			<path fill="#939598" d="M63.97,61.137c-2.801,0-5.073-2.271-5.073-5.073c0-2.801,2.272-5.072,5.073-5.071
				c2.802-0.001,5.073,2.271,5.073,5.072C69.043,58.864,66.772,61.137,63.97,61.137z M63.971,43.851
				c-7.16,0.002-12.964,5.807-12.964,12.966c0,7.158,12.963,28.745,12.963,28.745s12.963-21.586,12.964-28.747
				C76.934,49.656,71.129,43.853,63.971,43.851z"/>
			<path fill="#939598" d="M64.254,61.421c-2.801,0-5.073-2.271-5.073-5.072s2.272-5.073,5.073-5.072
				c2.802,0,5.073,2.271,5.073,5.072C69.328,59.149,67.056,61.421,64.254,61.421z M64.255,44.136
				c-7.161,0.001-12.964,5.805-12.964,12.965c0,7.158,12.963,28.744,12.963,28.744S77.218,64.26,77.219,57.1
				C77.218,49.94,71.414,44.137,64.255,44.136z"/>
			<path fill="#939598" d="M64.539,61.705c-2.801,0-5.073-2.271-5.073-5.072c0-2.802,2.272-5.072,5.073-5.072
				c2.802-0.001,5.073,2.271,5.073,5.072C69.612,59.434,67.341,61.705,64.539,61.705z M64.54,44.42
				c-7.16,0.001-12.964,5.806-12.964,12.965S64.539,86.13,64.539,86.13s12.963-21.586,12.964-28.746
				C77.502,50.226,71.699,44.421,64.54,44.42z"/>
			<path fill="#939598" d="M64.824,61.99c-2.801,0-5.073-2.271-5.073-5.073c0-2.801,2.272-5.072,5.073-5.071
				c2.803-0.002,5.074,2.27,5.073,5.072C69.896,59.718,67.626,61.988,64.824,61.99z M64.824,44.704
				C57.664,44.706,51.86,50.51,51.86,57.67c0,7.158,12.963,28.744,12.963,28.744s12.963-21.585,12.964-28.746
				C77.787,50.51,71.983,44.706,64.824,44.704z"/>
			<path fill="#939598" d="M65.108,62.274c-2.801,0-5.073-2.271-5.073-5.073c0-2.801,2.272-5.073,5.073-5.072
				c2.802,0,5.073,2.271,5.072,5.073C70.181,60.002,67.91,62.274,65.108,62.274z M65.108,44.988
				c-7.16,0.001-12.964,5.807-12.964,12.966c0,7.158,12.963,28.745,12.963,28.745s12.963-21.587,12.964-28.747
				C78.071,50.794,72.268,44.99,65.108,44.988z"/>
			<path fill="#939598" d="M65.393,62.559c-2.801,0-5.073-2.271-5.073-5.073c0-2.801,2.271-5.071,5.073-5.071
				c2.802-0.001,5.073,2.271,5.073,5.072C70.465,60.287,68.194,62.559,65.393,62.559z M65.393,45.273
				c-7.16,0.001-12.963,5.806-12.963,12.965s12.963,28.744,12.963,28.744s12.963-21.585,12.964-28.745
				C78.356,51.079,72.552,45.274,65.393,45.273z"/>
			<path fill="#939598" d="M65.677,62.844c-2.801,0-5.073-2.271-5.073-5.073c0-2.801,2.271-5.073,5.073-5.072
				c2.802-0.001,5.073,2.271,5.072,5.072C70.75,60.571,68.479,62.843,65.677,62.844z M65.677,45.558
				c-7.16,0.001-12.964,5.806-12.964,12.965c0,7.158,12.964,28.745,12.964,28.745S78.64,65.682,78.641,58.521
				C78.64,51.362,72.836,45.559,65.677,45.558z"/>
			<path fill="#939598" d="M65.961,63.128c-2.801-0.001-5.073-2.271-5.073-5.073c0-2.801,2.272-5.072,5.073-5.071
				c2.802-0.001,5.073,2.27,5.073,5.072C71.034,60.855,68.763,63.127,65.961,63.128z M65.961,45.842
				c-7.16,0.002-12.963,5.807-12.963,12.966c0,7.158,12.963,28.744,12.963,28.744s12.963-21.585,12.964-28.746
				C78.925,51.647,73.121,45.844,65.961,45.842z"/>
			<path fill="#939598" d="M66.246,63.412c-2.801,0-5.073-2.271-5.073-5.072s2.271-5.073,5.072-5.073
				c2.802,0,5.073,2.271,5.073,5.073C71.318,61.141,69.047,63.412,66.246,63.412z M66.246,46.127
				c-7.16,0-12.964,5.805-12.963,12.964c0,7.159,12.963,28.746,12.963,28.746S79.209,66.25,79.209,59.09
				C79.209,51.932,73.405,46.128,66.246,46.127z"/>
			<path fill="#939598" d="M66.53,63.696c-2.801,0-5.073-2.271-5.073-5.073c0-2.801,2.271-5.072,5.073-5.071
				c2.802-0.001,5.073,2.271,5.072,5.072C71.603,61.425,69.332,63.695,66.53,63.696z M66.531,46.411
				c-7.161,0.001-12.964,5.806-12.964,12.965c0,7.158,12.963,28.745,12.963,28.745s12.963-21.586,12.964-28.746
				C79.494,52.216,73.689,46.412,66.531,46.411z"/>
			<path fill="#939598" d="M66.814,63.981c-2.801,0-5.073-2.271-5.073-5.073c0-2.801,2.272-5.072,5.072-5.072
				c2.803,0,5.074,2.271,5.073,5.072C71.887,61.71,69.617,63.979,66.814,63.981z M66.815,46.695
				c-7.161,0.001-12.964,5.806-12.963,12.965c0,7.159,12.963,28.745,12.963,28.745s12.962-21.586,12.964-28.746
				C79.778,52.5,73.974,46.696,66.815,46.695z"/>
			<path fill="#939598" d="M67.099,64.265c-2.801,0-5.073-2.27-5.073-5.072c0-2.802,2.272-5.073,5.073-5.072
				c2.802,0,5.073,2.271,5.072,5.073C72.172,61.993,69.901,64.265,67.099,64.265z M67.1,46.979
				c-7.161,0.001-12.964,5.807-12.964,12.966c0,7.157,12.963,28.744,12.963,28.744s12.963-21.586,12.964-28.746
				C80.062,52.785,74.258,46.981,67.1,46.979z"/>
			<path fill="#939598" d="M67.383,64.55c-2.801,0-5.073-2.271-5.073-5.073c0-2.801,2.271-5.072,5.073-5.072
				c2.802,0,5.073,2.271,5.073,5.073C72.456,62.278,70.185,64.55,67.383,64.55z M67.384,47.265c-7.16,0-12.964,5.805-12.964,12.964
				c0,7.16,12.963,28.745,12.963,28.745s12.963-21.585,12.964-28.745C80.347,53.069,74.542,47.265,67.384,47.265z"/>
			<path fill="#939598" d="M67.667,64.834c-2.801,0-5.073-2.271-5.073-5.073c0-2.801,2.272-5.072,5.073-5.071
				c2.802-0.001,5.073,2.27,5.072,5.072C72.741,62.563,70.47,64.833,67.667,64.834z M67.668,47.549
				c-7.161,0.001-12.964,5.806-12.964,12.965c0,7.158,12.963,28.745,12.963,28.745s12.963-21.586,12.964-28.746
				C80.631,53.354,74.827,47.55,67.668,47.549z"/>
			<path fill="#939598" d="M67.952,65.119c-2.801-0.001-5.073-2.271-5.073-5.073c0-2.801,2.271-5.072,5.072-5.072
				c2.803-0.001,5.074,2.271,5.073,5.073C73.025,62.847,70.754,65.117,67.952,65.119z M67.953,47.833
				c-7.16,0.001-12.964,5.806-12.964,12.965c0,7.159,12.963,28.745,12.963,28.745s12.963-21.586,12.964-28.746
				C80.916,53.638,75.111,47.834,67.953,47.833z"/>
			<path fill="#939598" d="M68.236,65.402c-2.801,0-5.073-2.27-5.073-5.072c0-2.802,2.271-5.072,5.072-5.072
				c2.802,0,5.073,2.271,5.073,5.072C73.309,63.131,71.038,65.402,68.236,65.402z M68.237,48.117
				c-7.16,0.001-12.964,5.806-12.963,12.965c0,7.159,12.963,28.745,12.963,28.745S81.2,68.241,81.201,61.081
				C81.2,53.923,75.396,48.119,68.237,48.117z"/>
			<path fill="#939598" d="M68.521,65.688c-2.801,0-5.073-2.271-5.073-5.073c0-2.801,2.271-5.071,5.073-5.071
				c2.802,0,5.073,2.271,5.073,5.072C73.594,63.416,71.323,65.687,68.521,65.688z M68.521,48.402
				c-7.161,0.001-12.964,5.805-12.964,12.964c0,7.16,12.963,28.745,12.963,28.745s12.963-21.585,12.964-28.745
				C81.484,54.207,75.68,48.403,68.521,48.402z"/>
			<path fill="#939598" d="M68.806,65.972c-2.801,0-5.073-2.271-5.073-5.073c0-2.801,2.272-5.072,5.073-5.071
				c2.802-0.002,5.073,2.271,5.072,5.072C73.878,63.699,71.608,65.972,68.806,65.972z M68.806,48.686
				c-7.16,0.002-12.964,5.807-12.964,12.966c0.001,7.158,12.963,28.745,12.963,28.745S81.769,68.811,81.77,61.649
				C81.77,54.491,75.965,48.688,68.806,48.686z"/>
			<path fill="#939598" d="M69.089,66.256c-2.801,0-5.073-2.27-5.073-5.072c0-2.802,2.272-5.073,5.073-5.072
				c2.802,0,5.073,2.271,5.073,5.072C74.163,63.984,71.892,66.256,69.089,66.256z M69.09,48.971
				c-7.161,0.001-12.964,5.805-12.964,12.965c0,7.158,12.963,28.745,12.963,28.745s12.963-21.586,12.964-28.746
				C82.053,54.775,76.25,48.972,69.09,48.971z"/>
			<path fill="#939598" d="M69.374,66.541c-2.801,0-5.073-2.271-5.073-5.073c0-2.802,2.271-5.072,5.073-5.072
				c2.802-0.001,5.073,2.271,5.073,5.072C74.447,64.269,72.176,66.541,69.374,66.541z M69.375,49.255
				c-7.16,0.001-12.964,5.806-12.964,12.965s12.963,28.745,12.963,28.745s12.963-21.586,12.964-28.746
				C82.337,55.061,76.534,49.256,69.375,49.255z"/>
			<path fill="#939598" d="M69.659,66.825c-2.801,0-5.073-2.271-5.073-5.073c0-2.801,2.272-5.072,5.073-5.071
				c2.802-0.001,5.073,2.27,5.072,5.072C74.732,64.554,72.461,66.823,69.659,66.825z M69.659,49.54
				c-7.161,0.001-12.964,5.805-12.964,12.965c0,7.158,12.963,28.744,12.963,28.744s12.963-21.585,12.964-28.745
				C82.622,55.345,76.818,49.541,69.659,49.54z"/>
			<path fill="#939598" d="M69.943,67.109c-2.801,0-5.073-2.271-5.073-5.073c0-2.801,2.272-5.072,5.073-5.071
				c2.802-0.002,5.073,2.271,5.073,5.072C75.016,64.838,72.746,67.108,69.943,67.109z M69.943,49.823
				c-7.16,0.002-12.964,5.807-12.964,12.966c0,7.158,12.963,28.745,12.963,28.745s12.963-21.586,12.964-28.747
				C82.907,55.629,77.103,49.825,69.943,49.823z"/>
			<path fill="#939598" d="M70.228,67.394c-2.801,0-5.073-2.271-5.073-5.072s2.272-5.072,5.073-5.072
				c2.802,0,5.073,2.271,5.073,5.072C75.3,65.122,73.029,67.394,70.228,67.394z M70.228,50.108
				c-7.16,0.001-12.963,5.806-12.963,12.965s12.963,28.744,12.963,28.744s12.963-21.585,12.964-28.745
				C83.191,55.914,77.387,50.109,70.228,50.108z"/>
			<path fill="#939598" d="M70.512,67.679c-2.801,0-5.073-2.271-5.073-5.073c0-2.801,2.271-5.073,5.073-5.072
				c2.802-0.001,5.073,2.271,5.072,5.072C75.585,65.406,73.313,67.678,70.512,67.679z M70.512,50.393
				c-7.16,0.001-12.964,5.806-12.964,12.965c0,7.158,12.964,28.745,12.964,28.745s12.963-21.586,12.964-28.746
				C83.476,56.197,77.671,50.394,70.512,50.393z"/>
			<path fill="#939598" d="M70.796,67.963c-2.801,0-5.073-2.271-5.073-5.073c0-2.801,2.272-5.072,5.073-5.071
				c2.802-0.002,5.073,2.27,5.073,5.072C75.869,65.69,73.599,67.962,70.796,67.963z M70.796,50.677
				c-7.16,0.002-12.963,5.807-12.963,12.966c0,7.158,12.963,28.744,12.963,28.744S83.76,70.802,83.76,63.641
				C83.76,56.482,77.956,50.679,70.796,50.677z"/>
			<path fill="#939598" d="M71.081,68.248c-2.801,0-5.073-2.271-5.073-5.073s2.271-5.073,5.073-5.073
				c2.802,0,5.073,2.271,5.072,5.073C76.154,65.976,73.882,68.247,71.081,68.248z M71.081,50.962
				c-7.16,0-12.964,5.806-12.963,12.965c0,7.158,12.963,28.745,12.963,28.745s12.963-21.587,12.964-28.746
				C84.044,56.767,78.24,50.963,71.081,50.962z"/>
			<path fill="#939598" d="M71.365,68.531c-2.801,0-5.073-2.271-5.073-5.072c0-2.802,2.271-5.072,5.072-5.072
				c2.802-0.001,5.073,2.271,5.073,5.072C76.438,66.26,74.167,68.531,71.365,68.531z M71.366,51.246
				c-7.16,0.001-12.964,5.806-12.964,12.965s12.963,28.745,12.963,28.745S84.329,71.37,84.329,64.21
				C84.329,57.052,78.524,51.247,71.366,51.246z"/>
			<path fill="#939598" d="M71.649,68.816c-2.801,0-5.073-2.271-5.073-5.073c0-2.801,2.272-5.072,5.073-5.072
				c2.802,0,5.073,2.271,5.072,5.073C76.723,66.545,74.452,68.815,71.649,68.816z M71.65,51.531
				c-7.161,0-12.964,5.805-12.964,12.964S71.65,93.24,71.65,93.24s12.963-21.586,12.964-28.746
				C84.613,57.336,78.809,51.531,71.65,51.531z"/>
			<path fill="#939598" d="M71.934,69.101c-2.801-0.001-5.073-2.271-5.073-5.073c0-2.801,2.271-5.072,5.072-5.071
				c2.802-0.002,5.074,2.27,5.073,5.072C77.007,66.828,74.736,69.1,71.934,69.101z M71.935,51.814
				c-7.16,0.002-12.964,5.807-12.964,12.966c0,7.158,12.963,28.745,12.963,28.745s12.963-21.586,12.964-28.747
				C84.897,57.62,79.093,51.816,71.935,51.814z"/>
			<path fill="#939598" d="M72.218,69.385c-2.801,0-5.073-2.271-5.073-5.072s2.271-5.073,5.072-5.073
				c2.802,0,5.073,2.271,5.073,5.073C77.291,67.113,75.02,69.385,72.218,69.385z M72.219,52.1c-7.16,0-12.964,5.805-12.963,12.964
				c0,7.16,12.963,28.745,12.963,28.745s12.962-21.585,12.964-28.745C85.182,57.904,79.378,52.101,72.219,52.1z"/>
			<path fill="#939598" d="M72.502,69.669c-2.801,0-5.073-2.271-5.073-5.073c0-2.801,2.272-5.072,5.073-5.071
				c2.802-0.001,5.073,2.27,5.072,5.072C77.576,67.397,75.305,69.668,72.502,69.669z M72.503,52.384
				c-7.161,0.001-12.964,5.806-12.964,12.965c0,7.158,12.963,28.745,12.963,28.745s12.963-21.586,12.964-28.746
				C85.466,58.189,79.662,52.385,72.503,52.384z"/>
			<path fill="#939598" d="M72.788,69.954c-2.802,0-5.073-2.271-5.073-5.073c0-2.801,2.272-5.072,5.073-5.072
				c2.802-0.001,5.073,2.271,5.072,5.073C77.86,67.682,75.59,69.953,72.788,69.954z M72.788,52.668
				c-7.16,0.001-12.964,5.806-12.964,12.965c0.001,7.159,12.964,28.745,12.964,28.745S85.75,72.792,85.751,65.632
				C85.75,58.473,79.947,52.669,72.788,52.668z"/>
			<path fill="#939598" d="M73.071,70.238c-2.801,0-5.073-2.271-5.073-5.073c0-2.802,2.271-5.072,5.073-5.072
				c2.802,0,5.073,2.271,5.073,5.073C78.145,67.966,75.874,70.237,73.071,70.238z M73.072,52.952
				c-7.161,0.001-12.964,5.807-12.964,12.966c0,7.158,12.963,28.745,12.963,28.745s12.963-21.587,12.964-28.747
				C86.035,58.758,80.231,52.954,73.072,52.952z"/>
			<path fill="#939598" d="M73.356,70.522c-2.801,0-5.073-2.271-5.073-5.072c0-2.802,2.271-5.072,5.072-5.072
				c2.802-0.001,5.073,2.271,5.073,5.072C78.429,68.251,76.158,70.522,73.356,70.522z M73.356,53.237
				c-7.16,0.001-12.964,5.805-12.964,12.964c0,7.16,12.963,28.745,12.963,28.745S86.319,73.361,86.32,66.201
				C86.319,59.042,80.515,53.238,73.356,53.237z"/>
			<path fill="#939598" d="M73.64,70.807c-2.801,0-5.073-2.271-5.073-5.073c0-2.801,2.272-5.072,5.073-5.071
				c2.803-0.001,5.073,2.271,5.073,5.072C78.713,68.535,76.443,70.807,73.64,70.807z M73.641,53.521
				c-7.161,0.001-12.964,5.806-12.964,12.965c0,7.158,12.963,28.745,12.963,28.745s12.963-21.586,12.964-28.746
				C86.604,59.327,80.8,53.522,73.641,53.521z"/>
			<path fill="#939598" d="M73.925,71.092c-2.802-0.001-5.073-2.271-5.073-5.073c0-2.801,2.271-5.072,5.072-5.071
				c2.803-0.002,5.074,2.27,5.073,5.072C78.998,68.819,76.728,71.09,73.925,71.092z M73.926,53.806
				c-7.161,0.002-12.964,5.806-12.964,12.965c0,7.159,12.963,28.745,12.963,28.745S86.888,73.931,86.889,66.77
				C86.889,59.611,81.084,53.808,73.926,53.806z"/>
			<path fill="#939598" d="M74.21,71.376c-2.802,0-5.073-2.271-5.073-5.073c0-2.801,2.271-5.072,5.073-5.072
				c2.802,0,5.073,2.271,5.073,5.073C79.282,69.104,77.012,71.376,74.21,71.376z M74.21,54.09
				c-7.16,0.001-12.964,5.807-12.964,12.965c0,7.159,12.964,28.745,12.964,28.745s12.963-21.586,12.964-28.746
				C87.173,59.896,81.369,54.091,74.21,54.09z"/>
			<path fill="#939598" d="M74.494,71.66c-2.801,0-5.073-2.271-5.073-5.073c0-2.801,2.272-5.072,5.073-5.071
				c2.802-0.001,5.073,2.27,5.072,5.072C79.567,69.389,77.296,71.659,74.494,71.66z M74.494,54.375
				C67.333,54.376,61.53,60.18,61.53,67.34c0,7.158,12.963,28.744,12.963,28.744s12.963-21.585,12.964-28.745
				C87.457,60.18,81.653,54.376,74.494,54.375z"/>
			<path fill="#939598" d="M74.778,71.944c-2.801,0-5.073-2.271-5.073-5.073c0-2.801,2.272-5.072,5.073-5.071
				c2.802-0.001,5.073,2.271,5.073,5.072C79.851,69.673,77.581,71.944,74.778,71.944z M74.778,54.659
				c-7.16,0.001-12.964,5.806-12.964,12.965c0.001,7.158,12.964,28.745,12.964,28.745s12.963-21.586,12.964-28.747
				C87.742,60.464,81.938,54.66,74.778,54.659z"/>
			<path fill="#939598" d="M75.063,72.229c-2.801,0-5.073-2.27-5.073-5.072c0-2.802,2.271-5.072,5.073-5.072
				c2.802,0,5.073,2.271,5.072,5.072C80.136,69.957,77.864,72.229,75.063,72.229z M75.063,54.943
				c-7.16,0.001-12.964,5.806-12.964,12.966c0,7.158,12.963,28.744,12.963,28.744s12.963-21.586,12.964-28.746
				C88.026,60.749,82.222,54.945,75.063,54.943z"/>
			<path fill="#939598" d="M75.347,72.514c-2.801,0-5.073-2.271-5.073-5.073c0-2.801,2.271-5.072,5.073-5.072
				c2.802-0.001,5.073,2.271,5.073,5.072C80.42,70.241,78.148,72.514,75.347,72.514z M75.347,55.228
				c-7.16,0.001-12.963,5.806-12.963,12.965s12.963,28.745,12.963,28.745s12.963-21.586,12.964-28.746
				C88.311,61.033,82.506,55.229,75.347,55.228z"/>
			<path fill="#939598" d="M75.631,72.798c-2.801,0-5.073-2.271-5.073-5.073c0-2.801,2.272-5.072,5.072-5.071
				c2.803-0.001,5.074,2.27,5.073,5.072C80.704,70.526,78.434,72.796,75.631,72.798z M75.632,55.513
				c-7.16,0.001-12.964,5.806-12.963,12.965c0,7.158,12.963,28.744,12.963,28.744s12.962-21.585,12.963-28.745
				C88.595,61.318,82.791,55.514,75.632,55.513z"/>
			<path fill="#939598" d="M75.917,73.083c-2.802-0.001-5.073-2.271-5.073-5.073c0-2.801,2.271-5.073,5.073-5.072
				c2.802-0.001,5.073,2.271,5.073,5.072C80.989,70.811,78.719,73.081,75.917,73.083z M75.917,55.797
				c-7.16,0.001-12.964,5.806-12.964,12.965c0,7.158,12.964,28.745,12.964,28.745S88.879,75.921,88.88,68.761
				C88.879,61.602,83.076,55.798,75.917,55.797z"/>
			<path fill="#939598" d="M76.201,73.367c-2.801-0.001-5.073-2.271-5.073-5.073s2.271-5.072,5.073-5.072
				c2.801,0,5.072,2.271,5.072,5.073C81.273,71.095,79.002,73.366,76.201,73.367z M76.201,56.081
				c-7.16,0.001-12.963,5.806-12.963,12.965s12.963,28.745,12.963,28.745s12.963-21.586,12.964-28.746
				C89.165,61.887,83.36,56.082,76.201,56.081z"/>
			<path fill="#939598" d="M76.484,73.651c-2.801,0-5.073-2.271-5.073-5.073c0-2.801,2.272-5.072,5.073-5.072
				c2.802,0,5.073,2.271,5.072,5.073C81.558,71.38,79.287,73.65,76.484,73.651z M76.485,56.366c-7.161,0-12.964,5.805-12.964,12.964
				s12.963,28.745,12.963,28.745s12.963-21.586,12.964-28.746C89.448,62.171,83.644,56.366,76.485,56.366z"/>
			<path fill="#939598" d="M76.769,73.936c-2.801,0-5.073-2.271-5.073-5.073c0-2.801,2.271-5.072,5.073-5.071
				c2.802-0.002,5.073,2.27,5.072,5.072C81.842,71.663,79.571,73.935,76.769,73.936z M76.77,56.649
				c-7.16,0.002-12.964,5.807-12.964,12.966c0,7.158,12.963,28.745,12.963,28.745s12.963-21.586,12.964-28.747
				C89.732,62.455,83.928,56.651,76.77,56.649z"/>
			<path fill="#939598" d="M77.053,74.22c-2.801,0-5.073-2.271-5.073-5.072s2.271-5.073,5.073-5.073
				c2.802,0,5.073,2.271,5.072,5.073C82.126,71.948,79.855,74.22,77.053,74.22z M77.054,56.935
				C69.894,56.936,64.09,62.74,64.09,69.899c0,7.159,12.963,28.745,12.963,28.745s12.963-21.586,12.964-28.746
				C90.017,62.739,84.213,56.936,77.054,56.935z"/>
			<path fill="#939598" d="M77.338,74.504c-2.801,0-5.073-2.271-5.073-5.072c0-2.802,2.271-5.072,5.072-5.072
				c2.802-0.001,5.073,2.271,5.073,5.072C82.411,72.232,80.14,74.504,77.338,74.504z M77.338,57.219
				c-7.16,0.001-12.964,5.806-12.964,12.965s12.963,28.745,12.963,28.745s12.963-21.586,12.964-28.746
				C90.301,63.024,84.497,57.22,77.338,57.219z"/>
			<path fill="#939598" d="M77.622,74.789c-2.801,0-5.073-2.271-5.072-5.072c0-2.802,2.271-5.073,5.072-5.073
				c2.803,0,5.074,2.271,5.073,5.073C82.695,72.518,80.424,74.787,77.622,74.789z M77.623,57.504
				c-7.161,0-12.964,5.805-12.964,12.964s12.963,28.745,12.963,28.745s12.962-21.586,12.964-28.745
				C90.586,63.309,84.782,57.504,77.623,57.504z"/>
			<path fill="#939598" d="M77.907,75.073c-2.802-0.001-5.073-2.271-5.073-5.073c0-2.801,2.271-5.071,5.072-5.071
				c2.802-0.002,5.074,2.27,5.073,5.072C82.98,72.801,80.709,75.072,77.907,75.073z M77.908,57.787
				c-7.161,0.002-12.964,5.807-12.964,12.966c0,7.159,12.963,28.745,12.963,28.745S90.87,77.912,90.871,70.751
				C90.871,63.594,85.066,57.789,77.908,57.787z"/>
			<path fill="#939598" d="M78.191,75.358c-2.801-0.001-5.073-2.271-5.073-5.073c0-2.802,2.271-5.072,5.073-5.072
				s5.072,2.271,5.072,5.073C83.264,73.086,80.994,75.357,78.191,75.358z M78.192,58.072c-7.16,0.001-12.964,5.806-12.964,12.965
				s12.963,28.744,12.963,28.744s12.963-21.585,12.964-28.745C91.155,63.877,85.351,58.073,78.192,58.072z"/>
			<path fill="#939598" d="M78.475,75.642c-2.801,0-5.073-2.271-5.073-5.073c0-2.801,2.272-5.072,5.073-5.071
				c2.803-0.001,5.073,2.271,5.073,5.072C83.548,73.37,81.278,75.642,78.475,75.642z M78.476,58.356
				c-7.161,0.001-12.964,5.806-12.964,12.965c0,7.158,12.963,28.745,12.963,28.745S91.438,78.48,91.44,71.32
				C91.439,64.162,85.635,58.357,78.476,58.356z"/>
			<path fill="#939598" d="M78.76,75.927c-2.801,0-5.073-2.271-5.073-5.073c0-2.801,2.271-5.072,5.073-5.071
				c2.802-0.002,5.073,2.27,5.073,5.072C83.833,73.654,81.563,75.926,78.76,75.927z M78.76,58.641
				c-7.16,0.002-12.964,5.806-12.964,12.965c0.001,7.159,12.963,28.745,12.963,28.745s12.963-21.585,12.964-28.746
				C91.723,64.446,85.919,58.643,78.76,58.641z"/>
			<path fill="#939598" d="M79.044,76.211c-2.801,0-5.073-2.271-5.073-5.073c0-2.801,2.272-5.072,5.073-5.072
				c2.802,0,5.073,2.271,5.073,5.072C84.117,73.938,81.846,76.211,79.044,76.211z M79.045,58.925
				c-7.161,0.001-12.964,5.806-12.964,12.965c0,7.159,12.963,28.746,12.963,28.746s12.963-21.587,12.964-28.747
				C92.008,64.73,86.204,58.927,79.045,58.925z"/>
			<path fill="#939598" d="M79.329,76.495c-2.801,0-5.073-2.271-5.073-5.072c0-2.802,2.271-5.072,5.073-5.072
				c2.802-0.001,5.073,2.271,5.073,5.072C84.402,74.224,82.13,76.495,79.329,76.495z M79.329,59.21
				c-7.16,0.001-12.964,5.805-12.964,12.965c0,7.159,12.963,28.744,12.963,28.744s12.963-21.585,12.964-28.745
				C92.292,65.015,86.488,59.211,79.329,59.21z"/>
			<path fill="#939598" d="M79.613,76.779c-2.801,0-5.073-2.271-5.073-5.072c0-2.802,2.271-5.073,5.072-5.072
				c2.803-0.001,5.073,2.271,5.073,5.072C84.686,74.508,82.416,76.778,79.613,76.779z M79.614,59.494
				C72.453,59.495,66.65,65.3,66.65,72.459c0,7.158,12.963,28.745,12.963,28.745s12.963-21.586,12.964-28.747
				C92.577,65.299,86.773,59.495,79.614,59.494z"/>
			<path fill="#939598" d="M79.898,77.064c-2.801-0.001-5.073-2.271-5.073-5.073c0-2.801,2.271-5.071,5.073-5.071
				c2.802-0.002,5.073,2.27,5.073,5.072C84.971,74.792,82.701,77.063,79.898,77.064z M79.898,59.778
				c-7.161,0.002-12.964,5.806-12.964,12.965c0,7.16,12.963,28.745,12.963,28.745s12.963-21.585,12.964-28.746
				C92.862,65.584,87.058,59.78,79.898,59.778z"/>
			<path fill="#939598" d="M80.182,77.349c-2.801,0-5.073-2.271-5.073-5.073c0-2.801,2.271-5.072,5.073-5.072
				c2.802,0,5.073,2.271,5.073,5.073C85.255,75.076,82.984,77.349,80.182,77.349z M80.183,60.063
				c-7.16,0.001-12.964,5.806-12.964,12.965s12.963,28.745,12.963,28.745s12.964-21.586,12.964-28.746
				C93.146,65.868,87.342,60.063,80.183,60.063z"/>
			<path fill="#939598" d="M80.466,77.633c-2.801,0-5.073-2.271-5.073-5.073c0-2.801,2.272-5.072,5.073-5.071
				c2.802-0.001,5.073,2.27,5.072,5.072C85.54,75.361,83.269,77.632,80.466,77.633z M80.467,60.348
				c-7.16,0.001-12.964,5.806-12.963,12.965c0,7.158,12.963,28.744,12.963,28.744S93.43,80.472,93.431,73.312
				C93.43,66.153,87.626,60.349,80.467,60.348z"/>
			<path fill="#939598" d="M80.751,77.918c-2.801,0-5.073-2.271-5.073-5.073c0-2.801,2.271-5.073,5.073-5.072
				c2.802-0.001,5.073,2.271,5.072,5.072C85.824,75.646,83.553,77.916,80.751,77.918z M80.751,60.632
				c-7.16,0.001-12.964,5.806-12.964,12.965c0,7.158,12.963,28.745,12.963,28.745s12.963-21.586,12.964-28.746
				C93.714,66.437,87.91,60.633,80.751,60.632z"/>
			<path fill="#939598" d="M81.035,78.201c-2.801,0-5.073-2.27-5.073-5.072c0-2.802,2.271-5.072,5.072-5.072
				c2.802,0,5.073,2.271,5.073,5.073C86.108,75.93,83.837,78.201,81.035,78.201z M81.036,60.916
				c-7.16,0.001-12.964,5.806-12.963,12.966c0,7.158,12.963,28.744,12.963,28.744S93.999,81.04,94,73.88
				C93.999,66.722,88.195,60.918,81.036,60.916z"/>
			<path fill="#939598" d="M81.32,78.486c-2.801,0-5.073-2.271-5.073-5.072c0-2.802,2.271-5.073,5.072-5.073
				c2.802,0,5.073,2.271,5.073,5.073C86.393,76.215,84.122,78.486,81.32,78.486z M81.32,61.201c-7.16,0-12.964,5.805-12.964,12.964
				c0,7.159,12.963,28.745,12.963,28.745s12.963-21.586,12.964-28.746C94.284,67.006,88.479,61.201,81.32,61.201z"/>
			<path fill="#939598" d="M81.604,78.771c-2.801,0-5.073-2.271-5.072-5.072c0-2.802,2.271-5.073,5.072-5.072
				c2.803-0.001,5.074,2.27,5.073,5.072C86.677,76.499,84.406,78.77,81.604,78.771z M81.605,61.485
				c-7.161,0.001-12.964,5.806-12.964,12.965c0,7.158,12.963,28.745,12.963,28.745s12.962-21.586,12.964-28.746
				C94.568,67.291,88.764,61.486,81.605,61.485z"/>
			<path fill="#939598" d="M81.889,79.056c-2.802-0.001-5.073-2.271-5.073-5.073c0-2.801,2.271-5.072,5.072-5.072
				c2.802-0.001,5.074,2.271,5.073,5.072C86.961,76.783,84.691,79.054,81.889,79.056z M81.889,61.77
				c-7.16,0.001-12.963,5.806-12.963,12.965c0,7.159,12.963,28.745,12.963,28.745s12.963-21.586,12.964-28.746
				C94.853,67.574,89.048,61.771,81.889,61.77z"/>
			<path fill="#939598" d="M82.173,79.34c-2.801-0.001-5.073-2.271-5.073-5.073c0-2.801,2.271-5.072,5.073-5.072
				s5.072,2.271,5.072,5.073C87.246,77.067,84.975,79.339,82.173,79.34z M82.174,62.054c-7.16,0.001-12.964,5.807-12.964,12.965
				c0,7.159,12.963,28.745,12.963,28.745s12.963-21.586,12.964-28.746C95.137,67.859,89.333,62.055,82.174,62.054z"/>
			<path fill="#939598" d="M82.457,79.624c-2.801,0-5.073-2.271-5.073-5.073c0-2.801,2.272-5.072,5.073-5.072
				c2.802,0,5.073,2.271,5.073,5.073C87.53,77.353,85.259,79.623,82.457,79.624z M82.458,62.339
				c-7.161,0-12.964,5.805-12.964,12.964s12.963,28.745,12.963,28.745S95.42,82.463,95.422,75.303
				C95.421,68.144,89.617,62.339,82.458,62.339z"/>
			<path fill="#939598" d="M82.742,79.908c-2.801,0-5.073-2.271-5.073-5.073c0-2.801,2.271-5.072,5.072-5.071
				c2.803-0.002,5.073,2.27,5.073,5.072C87.814,77.636,85.544,79.907,82.742,79.908z M82.742,62.622
				c-7.16,0.002-12.964,5.807-12.964,12.966c0,7.158,12.963,28.745,12.963,28.745s12.963-21.586,12.964-28.747
				C95.705,68.428,89.901,62.624,82.742,62.622z"/>
			<path fill="#939598" d="M83.026,80.192c-2.801,0-5.073-2.271-5.072-5.072c0-2.802,2.271-5.072,5.072-5.072
				c2.802,0,5.073,2.271,5.073,5.072C88.099,77.921,85.828,80.192,83.026,80.192z M83.027,62.907
				c-7.161,0.001-12.964,5.805-12.964,12.965c0,7.159,12.963,28.745,12.963,28.745S95.989,83.031,95.99,75.871
				C95.99,68.712,90.186,62.908,83.027,62.907z"/>
			<path fill="#939598" d="M83.311,80.477c-2.801,0-5.073-2.271-5.073-5.072c0-2.802,2.271-5.072,5.072-5.072
				c2.802-0.001,5.073,2.271,5.073,5.072C88.383,78.205,86.112,80.477,83.311,80.477z M83.311,63.191
				c-7.16,0.001-12.964,5.806-12.964,12.965c0,7.159,12.963,28.745,12.963,28.745s12.963-21.586,12.964-28.746
				C96.274,68.997,90.47,63.192,83.311,63.191z"/>
			<path fill="#939598" d="M83.595,80.762c-2.801,0-5.073-2.271-5.072-5.072c0-2.802,2.271-5.073,5.072-5.072
				c2.803-0.001,5.073,2.27,5.073,5.072C88.668,78.49,86.397,80.76,83.595,80.762z M83.596,63.477
				c-7.161,0.001-12.964,5.805-12.964,12.964s12.963,28.745,12.963,28.745s12.963-21.585,12.964-28.746
				C96.559,69.281,90.754,63.478,83.596,63.477z"/>
			<path fill="#939598" d="M83.88,81.046c-2.802,0-5.073-2.271-5.073-5.073c0-2.801,2.271-5.071,5.072-5.071
				c2.803-0.002,5.074,2.271,5.073,5.072C88.953,78.773,86.682,81.045,83.88,81.046z M83.88,63.76
				c-7.161,0.002-12.964,5.807-12.964,12.966c0,7.159,12.963,28.745,12.963,28.745s12.963-21.586,12.964-28.747
				C96.844,69.565,91.039,63.762,83.88,63.76z"/>
			<path fill="#939598" d="M84.164,81.33c-2.801,0-5.073-2.271-5.072-5.072c0-2.802,2.271-5.072,5.072-5.072
				c2.802,0,5.073,2.271,5.073,5.073C89.237,79.059,86.966,81.33,84.164,81.33z M84.165,64.045
				c-7.16,0.001-12.964,5.805-12.964,12.965c0,7.159,12.963,28.744,12.963,28.744s12.964-21.585,12.965-28.745
				C97.127,69.85,91.324,64.046,84.165,64.045z"/>
			<path fill="#939598" d="M84.448,81.615c-2.801,0-5.073-2.271-5.073-5.073c0-2.802,2.271-5.073,5.073-5.072
				c2.802-0.001,5.073,2.271,5.072,5.072C89.521,79.343,87.25,81.613,84.448,81.615z M84.449,64.329
				c-7.16,0.001-12.964,5.806-12.964,12.965c0,7.158,12.963,28.745,12.963,28.745s12.963-21.586,12.964-28.746
				C97.412,70.135,91.608,64.33,84.449,64.329z"/>
			<path fill="#939598" d="M84.733,81.899c-2.801,0-5.073-2.271-5.073-5.073c0-2.801,2.271-5.072,5.073-5.071
				c2.802-0.002,5.073,2.269,5.073,5.072C89.806,79.627,87.535,81.897,84.733,81.899z M84.733,64.613
				c-7.16,0.002-12.964,5.806-12.964,12.966c0,7.158,12.964,28.744,12.964,28.744s12.963-21.585,12.964-28.746
				C97.696,70.419,91.892,64.615,84.733,64.613z"/>
			<path fill="#939598" d="M85.017,82.184c-2.801,0-5.073-2.271-5.073-5.073c0-2.801,2.271-5.072,5.072-5.072
				c2.803-0.001,5.074,2.271,5.073,5.072C90.09,79.912,87.819,82.183,85.017,82.184z M85.018,64.898
				c-7.16,0-12.964,5.805-12.964,12.964s12.963,28.746,12.963,28.746S97.98,85.021,97.981,77.861
				C97.981,70.703,92.177,64.899,85.018,64.898z"/>
			<path fill="#939598" d="M85.302,82.468c-2.802,0-5.073-2.271-5.073-5.072s2.271-5.072,5.073-5.072
				c2.802-0.001,5.073,2.271,5.073,5.072C90.375,80.196,88.103,82.468,85.302,82.468z M85.302,65.183
				c-7.16,0.001-12.963,5.806-12.963,12.965s12.963,28.745,12.963,28.745s12.963-21.586,12.964-28.746
				C98.265,70.988,92.461,65.184,85.302,65.183z"/>
			<path fill="#939598" d="M85.586,82.753c-2.801,0-5.073-2.271-5.073-5.073c0-2.801,2.272-5.073,5.073-5.072
				c2.802-0.001,5.073,2.271,5.072,5.072C90.659,80.48,88.389,82.752,85.586,82.753z M85.586,65.467
				c-7.16,0.001-12.963,5.806-12.963,12.965c0,7.158,12.963,28.745,12.963,28.745S98.55,85.591,98.55,78.431
				C98.55,71.271,92.746,65.468,85.586,65.467z"/>
			<path fill="#939598" d="M85.871,83.038c-2.801-0.001-5.073-2.271-5.073-5.073c0-2.801,2.271-5.072,5.073-5.072
				c2.802-0.001,5.073,2.271,5.073,5.073C90.943,80.766,88.673,83.036,85.871,83.038z M85.871,65.752
				c-7.16,0.002-12.963,5.806-12.963,12.965s12.963,28.744,12.963,28.744s12.963-21.585,12.964-28.745
				C98.834,71.558,93.03,65.754,85.871,65.752z"/>
			<path fill="#939598" d="M86.155,83.321c-2.801,0-5.073-2.271-5.072-5.072c0-2.802,2.271-5.073,5.072-5.073
				s5.072,2.271,5.072,5.073C91.228,81.05,88.957,83.321,86.155,83.321z M86.156,66.036c-7.16,0-12.964,5.805-12.964,12.964
				s12.963,28.745,12.963,28.745S99.119,86.159,99.119,79C99.119,71.841,93.315,66.036,86.156,66.036z"/>
			<path fill="#939598" d="M86.439,83.605c-2.801,0-5.073-2.271-5.072-5.072c0-2.802,2.271-5.073,5.072-5.072
				c2.802-0.001,5.073,2.27,5.072,5.072C91.512,81.334,89.241,83.604,86.439,83.605z M86.44,66.32
				c-7.161,0.001-12.964,5.806-12.964,12.965c0,7.158,12.963,28.745,12.963,28.745s12.963-21.586,12.964-28.746
				C99.403,72.126,93.599,66.321,86.44,66.32z"/>
			<path fill="#939598" d="M86.724,83.891c-2.801,0-5.073-2.271-5.073-5.073c0-2.801,2.271-5.072,5.072-5.072
				c2.802-0.001,5.073,2.27,5.073,5.073C91.796,81.618,89.526,83.889,86.724,83.891z M86.724,66.604
				c-7.16,0.001-12.964,5.806-12.964,12.965c0,7.159,12.963,28.745,12.963,28.745s12.963-21.586,12.964-28.746
				C99.688,72.41,93.883,66.605,86.724,66.604z"/>
			<path fill="#939598" d="M87.008,84.174c-2.801,0-5.073-2.27-5.072-5.072c0-2.802,2.271-5.072,5.072-5.072
				c2.803-0.001,5.074,2.271,5.073,5.072C92.081,81.902,89.81,84.174,87.008,84.174z M87.009,66.889
				c-7.161,0.001-12.964,5.806-12.964,12.965c0,7.159,12.963,28.746,12.963,28.746s12.963-21.587,12.964-28.747
				C99.972,72.694,94.167,66.891,87.009,66.889z"/>
			<path fill="#939598" d="M87.292,84.459c-2.802,0-5.073-2.271-5.073-5.072c0-2.802,2.271-5.073,5.072-5.073
				c2.802,0,5.073,2.271,5.073,5.073C92.365,82.188,90.094,84.459,87.292,84.459z M87.293,67.174
				c-7.161,0-12.964,5.805-12.964,12.964c0,7.16,12.963,28.745,12.963,28.745s12.963-21.585,12.964-28.745
				C100.256,72.979,94.452,67.174,87.293,67.174z"/>
			<path fill="#939598" d="M87.577,84.743c-2.801,0-5.073-2.271-5.073-5.073c0-2.801,2.271-5.072,5.073-5.071
				c2.802-0.002,5.073,2.27,5.072,5.072C92.65,82.471,90.379,84.743,87.577,84.743z M87.578,67.457
				c-7.16,0.002-12.964,5.807-12.964,12.966c0,7.158,12.963,28.745,12.963,28.745s12.963-21.586,12.964-28.747
				C100.541,73.263,94.736,67.459,87.578,67.457z"/>
			<path fill="#939598" d="M87.862,85.028c-2.802-0.001-5.073-2.271-5.073-5.073c0-2.801,2.271-5.072,5.072-5.072
				c2.803-0.001,5.074,2.271,5.073,5.073C92.934,82.756,90.664,85.026,87.862,85.028z M87.862,67.742
				c-7.16,0.001-12.964,5.806-12.964,12.965s12.964,28.745,12.964,28.745s12.963-21.586,12.964-28.746
				C100.826,73.547,95.021,67.743,87.862,67.742z"/>
			<path fill="#939598" d="M88.146,85.312c-2.801,0-5.073-2.271-5.073-5.072c0-2.802,2.271-5.072,5.072-5.072
				c2.802,0,5.073,2.271,5.073,5.073C93.218,83.04,90.947,85.312,88.146,85.312z M88.146,68.026
				c-7.16,0.001-12.964,5.806-12.964,12.965s12.963,28.745,12.963,28.745S101.109,88.15,101.11,80.99
				C101.109,73.832,95.305,68.027,88.146,68.026z"/>
			<path fill="#939598" d="M88.43,85.597c-2.801,0-5.073-2.271-5.072-5.072c0-2.802,2.271-5.073,5.072-5.072
				c2.803-0.001,5.073,2.27,5.073,5.072C93.503,83.325,91.232,85.596,88.43,85.597z M88.431,68.312
				c-7.161,0.001-12.964,5.805-12.964,12.964s12.963,28.745,12.963,28.745s12.963-21.585,12.964-28.745
				C101.394,74.116,95.589,68.313,88.431,68.312z"/>
			<path fill="#939598" d="M88.714,85.881c-2.801,0-5.073-2.271-5.073-5.073c0-2.801,2.272-5.071,5.073-5.071
				c2.802-0.002,5.073,2.27,5.073,5.072C93.788,83.608,91.517,85.88,88.714,85.881z M88.715,68.595
				c-7.16,0.002-12.964,5.807-12.964,12.966c0,7.159,12.963,28.745,12.963,28.745s12.963-21.586,12.964-28.747
				C101.678,74.401,95.874,68.597,88.715,68.595z"/>
			<path fill="#939598" d="M88.999,86.165c-2.801,0-5.073-2.271-5.073-5.072s2.272-5.072,5.073-5.072
				c2.803-0.001,5.073,2.27,5.073,5.072C94.072,83.894,91.801,86.164,88.999,86.165z M88.999,68.88
				c-7.16,0.001-12.964,5.806-12.963,12.965c0,7.159,12.963,28.744,12.963,28.744s12.963-21.585,12.964-28.745
				C101.962,74.686,96.159,68.881,88.999,68.88z"/>
			<path fill="#939598" d="M89.283,86.45c-2.801,0-5.073-2.271-5.073-5.073c0-2.801,2.271-5.072,5.073-5.072
				c2.801-0.001,5.073,2.271,5.073,5.072C94.356,84.178,92.085,86.45,89.283,86.45z M89.284,69.164
				c-7.16,0.001-12.964,5.806-12.964,12.965c0,7.159,12.963,28.745,12.963,28.745s12.963-21.586,12.964-28.746
				C102.247,74.97,96.443,69.165,89.284,69.164z"/>
			<path fill="#939598" d="M89.568,86.734c-2.801,0-5.073-2.271-5.073-5.073c0-2.801,2.271-5.072,5.073-5.071
				c2.802-0.002,5.073,2.27,5.073,5.072C94.641,84.462,92.371,86.733,89.568,86.734z M89.568,69.448
				c-7.16,0.002-12.964,5.806-12.964,12.966c0,7.158,12.963,28.744,12.963,28.744s12.963-21.585,12.964-28.746
				C102.532,75.254,96.728,69.45,89.568,69.448z"/>
			<path fill="#939598" d="M89.853,87.02c-2.801-0.001-5.073-2.271-5.073-5.073s2.272-5.072,5.073-5.072
				c2.802-0.001,5.074,2.271,5.073,5.072C94.925,84.747,92.654,87.018,89.853,87.02z M89.853,69.733
				c-7.16,0.001-12.963,5.806-12.963,12.964c0,7.16,12.963,28.746,12.963,28.746s12.963-21.586,12.964-28.747
				C102.816,75.538,97.012,69.734,89.853,69.733z"/>
			<path fill="#939598" d="M90.137,87.303c-2.801,0-5.073-2.271-5.073-5.072c0-2.802,2.271-5.072,5.072-5.072
				c2.802-0.001,5.073,2.271,5.073,5.072C95.209,85.031,92.938,87.303,90.137,87.303z M90.137,70.018
				c-7.16,0.001-12.964,5.806-12.964,12.965s12.963,28.745,12.963,28.745s12.963-21.586,12.964-28.746
				C103.1,75.823,97.296,70.019,90.137,70.018z"/>
			<path fill="#939598" d="M90.421,87.588c-2.802,0-5.073-2.271-5.073-5.073c0-2.801,2.272-5.073,5.073-5.072
				c2.802-0.001,5.074,2.271,5.073,5.072C95.494,85.315,93.223,87.587,90.421,87.588z M90.421,70.302
				c-7.16,0.001-12.963,5.806-12.963,12.965c0,7.159,12.963,28.745,12.963,28.745s12.963-21.586,12.963-28.746
				C103.385,76.107,97.581,70.303,90.421,70.302z"/>
			<path fill="#939598" d="M90.706,87.872c-2.802-0.001-5.073-2.271-5.073-5.073c0-2.801,2.271-5.071,5.073-5.071
				c2.802-0.002,5.073,2.269,5.073,5.072C95.779,85.6,93.508,87.871,90.706,87.872z M90.706,70.586
				c-7.16,0.002-12.963,5.807-12.963,12.966s12.963,28.744,12.963,28.744s12.963-21.585,12.963-28.746
				C103.669,76.393,97.865,70.588,90.706,70.586z"/>
			<path fill="#939598" d="M90.99,88.156c-2.801,0-5.073-2.271-5.073-5.072s2.271-5.073,5.072-5.073
				c2.803,0,5.074,2.271,5.073,5.073C96.063,85.885,93.792,88.155,90.99,88.156z M90.99,70.871c-7.16,0-12.964,5.805-12.963,12.964
				c0,7.159,12.963,28.746,12.963,28.746s12.962-21.587,12.964-28.746C103.954,76.676,98.149,70.872,90.99,70.871z"/>
			<path fill="#939598" d="M91.275,88.44c-2.802,0-5.073-2.271-5.073-5.072s2.272-5.073,5.073-5.072
				c2.802-0.001,5.073,2.27,5.073,5.072C96.348,86.169,94.077,88.439,91.275,88.44z M91.275,71.155
				c-7.16,0.001-12.963,5.806-12.963,12.965c0,7.158,12.963,28.745,12.963,28.745s12.963-21.586,12.964-28.746
				C104.239,76.961,98.434,71.156,91.275,71.155z"/>
			<path fill="#939598" d="M91.559,88.726c-2.802,0-5.073-2.271-5.073-5.073c0-2.801,2.271-5.072,5.073-5.072
				c2.802-0.001,5.073,2.271,5.072,5.073C96.631,86.453,94.361,88.725,91.559,88.726z M91.559,71.439
				c-7.16,0.001-12.964,5.806-12.964,12.965s12.964,28.745,12.964,28.745s12.963-21.586,12.964-28.746
				C104.522,77.244,98.718,71.44,91.559,71.439z"/>
			<path fill="#939598" d="M91.843,89.01c-2.802-0.001-5.073-2.271-5.073-5.073c0-2.801,2.271-5.072,5.072-5.072
				c2.802-0.001,5.074,2.271,5.073,5.073C96.916,86.737,94.645,89.009,91.843,89.01z M91.843,71.724
				c-7.16,0.002-12.963,5.807-12.963,12.965c0,7.159,12.963,28.745,12.963,28.745s12.963-21.586,12.964-28.746
				C104.807,77.529,99.002,71.726,91.843,71.724z"/>
			<path fill="#939598" d="M92.127,89.294c-2.801,0-5.073-2.271-5.073-5.072c0-2.802,2.271-5.073,5.072-5.073
				c2.802,0,5.073,2.271,5.073,5.073C97.2,87.022,94.929,89.294,92.127,89.294z M92.128,72.009
				c-7.16,0.001-12.964,5.805-12.964,12.964c0,7.16,12.963,28.745,12.963,28.745s12.963-21.585,12.964-28.745
				C105.091,77.813,99.287,72.01,92.128,72.009z"/>
			<path fill="#939598" d="M92.413,89.578c-2.802,0-5.073-2.271-5.073-5.072c0-2.802,2.271-5.073,5.072-5.072
				c2.802-0.002,5.074,2.271,5.072,5.072C97.485,87.306,95.214,89.578,92.413,89.578z M92.413,72.292
				c-7.16,0.002-12.964,5.807-12.964,12.966c0.001,7.158,12.964,28.745,12.964,28.745s12.963-21.586,12.964-28.747
				C105.376,78.099,99.572,72.294,92.413,72.292z"/>
			<path fill="#939598" d="M92.697,89.863c-2.802-0.001-5.073-2.271-5.073-5.073c0-2.801,2.271-5.072,5.072-5.072
				c2.802-0.001,5.073,2.27,5.073,5.073C97.77,87.591,95.499,89.861,92.697,89.863z M92.697,72.577
				c-7.161,0.001-12.964,5.806-12.964,12.965c0,7.159,12.963,28.745,12.963,28.745s12.963-21.586,12.964-28.746
				C105.661,78.382,99.856,72.578,92.697,72.577z"/>
			<path fill="#939598" d="M92.98,90.146c-2.801,0-5.073-2.27-5.073-5.072c0-2.802,2.271-5.072,5.072-5.072
				c2.803-0.001,5.074,2.271,5.073,5.072C98.053,87.875,95.783,90.146,92.98,90.146z M92.981,72.861
				c-7.16,0.001-12.964,5.806-12.963,12.965c0,7.159,12.963,28.746,12.963,28.746s12.963-21.587,12.964-28.747
				C105.944,78.667,100.14,72.863,92.981,72.861z"/>
			<path fill="#939598" d="M93.266,90.432c-2.802,0-5.073-2.271-5.073-5.072c0-2.802,2.272-5.073,5.072-5.072
				c2.803-0.001,5.073,2.27,5.073,5.072C98.338,88.16,96.068,90.431,93.266,90.432z M93.266,73.146
				c-7.161,0.001-12.964,5.805-12.964,12.965c0.001,7.158,12.963,28.744,12.963,28.744s12.963-21.585,12.964-28.745
				C106.229,78.951,100.425,73.147,93.266,73.146z"/>
			<path fill="#939598" d="M93.55,90.716c-2.801,0-5.073-2.271-5.073-5.073c0-2.801,2.272-5.072,5.073-5.071
				c2.802-0.002,5.073,2.271,5.073,5.072C98.623,88.443,96.352,90.716,93.55,90.716z M93.55,73.43
				c-7.16,0.002-12.964,5.807-12.964,12.966c0,7.158,12.964,28.745,12.964,28.745s12.963-21.586,12.964-28.747
				C106.513,79.235,100.709,73.432,93.55,73.43z"/>
			<path fill="#939598" d="M93.834,91.001c-2.801-0.001-5.073-2.271-5.073-5.073c0-2.801,2.271-5.072,5.073-5.072
				c2.802-0.001,5.073,2.27,5.073,5.073C98.907,88.729,96.636,90.999,93.834,91.001z M93.834,73.715
				c-7.16,0.001-12.963,5.806-12.963,12.965s12.963,28.744,12.963,28.744s12.963-21.585,12.964-28.745
				C106.797,79.521,100.994,73.716,93.834,73.715z"/>
			<path fill="#939598" d="M94.119,91.285c-2.801,0-5.073-2.271-5.073-5.073c0-2.801,2.272-5.072,5.073-5.072
				c2.802-0.001,5.073,2.271,5.073,5.072C99.191,89.013,96.92,91.285,94.119,91.285z M94.119,73.999
				C86.958,74,81.155,79.805,81.155,86.964c0,7.159,12.964,28.745,12.964,28.745s12.963-21.586,12.964-28.746
				C107.082,79.805,101.278,74,94.119,73.999z"/>
			<path fill="#939598" d="M94.403,91.569c-2.801,0-5.073-2.271-5.073-5.072c0-2.802,2.271-5.072,5.072-5.072
				c2.803-0.002,5.074,2.27,5.073,5.072C99.476,89.297,97.206,91.568,94.403,91.569z M94.403,74.283
				c-7.16,0.002-12.964,5.806-12.964,12.966c0,7.159,12.964,28.744,12.964,28.744s12.963-21.585,12.964-28.746
				C107.367,80.089,101.563,74.285,94.403,74.283z"/>
			<path fill="#939598" d="M94.688,91.854c-2.801,0-5.073-2.271-5.073-5.073c0-2.801,2.271-5.072,5.073-5.072
				c2.802-0.001,5.073,2.27,5.073,5.072C99.761,89.582,97.49,91.853,94.688,91.854z M94.688,74.568
				c-7.16,0.001-12.964,5.806-12.964,12.965c0,7.159,12.963,28.745,12.963,28.745s12.963-21.586,12.964-28.747
				C107.651,80.374,101.847,74.569,94.688,74.568z"/>
			<path fill="#939598" d="M94.972,92.138c-2.801,0-5.073-2.27-5.073-5.072c0-2.802,2.271-5.072,5.073-5.072
				c2.802-0.001,5.074,2.27,5.073,5.072C100.045,89.866,97.774,92.137,94.972,92.138z M94.972,74.853
				c-7.16,0.001-12.964,5.806-12.964,12.965s12.964,28.745,12.964,28.745s12.963-21.586,12.964-28.746
				C107.936,80.658,102.132,74.854,94.972,74.853z"/>
			<path fill="#939598" d="M95.256,92.423c-2.802,0-5.073-2.271-5.073-5.073c0-2.801,2.272-5.073,5.073-5.072
				c2.802-0.001,5.073,2.271,5.072,5.072C100.329,90.151,98.059,92.422,95.256,92.423z M95.257,75.137
				c-7.161,0.001-12.964,5.806-12.964,12.965c0.001,7.159,12.963,28.745,12.963,28.745s12.963-21.586,12.964-28.746
				C108.22,80.942,102.416,75.138,95.257,75.137z"/>
			<path fill="#939598" d="M95.541,92.707c-2.801,0-5.073-2.271-5.073-5.073c0-2.801,2.271-5.071,5.073-5.071
				c2.802-0.002,5.073,2.27,5.072,5.072C100.613,90.435,98.343,92.706,95.541,92.707z M95.541,75.421
				c-7.16,0.002-12.964,5.807-12.964,12.966c0,7.159,12.963,28.744,12.963,28.744s12.963-21.585,12.964-28.746
				C108.504,81.228,102.7,75.423,95.541,75.421z"/>
			<path fill="#939598" d="M95.825,92.992c-2.802-0.001-5.073-2.272-5.073-5.073c0-2.801,2.271-5.073,5.072-5.073
				c2.802,0,5.073,2.271,5.073,5.073C100.897,90.72,98.627,92.99,95.825,92.992z M95.825,75.706c-7.16,0-12.963,5.806-12.963,12.964
				c0,7.159,12.963,28.745,12.963,28.745s12.963-21.586,12.964-28.745C108.789,81.511,102.984,75.706,95.825,75.706z"/>
			<path fill="#939598" d="M96.109,93.275c-2.801,0-5.073-2.271-5.073-5.072c0-2.802,2.271-5.072,5.072-5.072
				c2.802-0.001,5.073,2.271,5.073,5.072C101.182,91.004,98.911,93.275,96.109,93.275z M96.11,75.99
				c-7.16,0.001-12.964,5.806-12.964,12.965c0,7.159,12.963,28.745,12.963,28.745s12.963-21.586,12.964-28.746
				C109.073,81.796,103.269,75.991,96.11,75.99z"/>
			<path fill="#939598" d="M96.395,93.561c-2.802,0-5.073-2.271-5.073-5.072c0-2.802,2.271-5.073,5.072-5.073
				c2.802-0.001,5.074,2.271,5.072,5.073C101.467,91.288,99.196,93.56,96.395,93.561z M96.395,76.274
				c-7.16,0.001-12.964,5.806-12.964,12.965c0,7.159,12.964,28.745,12.964,28.745s12.963-21.586,12.963-28.746
				C109.358,82.08,103.554,76.275,96.395,76.274z"/>
			<path fill="#939598" d="M96.679,93.845c-2.802-0.001-5.073-2.271-5.073-5.073c0-2.801,2.271-5.071,5.072-5.071
				c2.802-0.002,5.073,2.27,5.073,5.072C101.751,91.572,99.481,93.844,96.679,93.845z M96.679,76.559
				c-7.161,0.002-12.964,5.807-12.964,12.965c0,7.16,12.963,28.746,12.963,28.746s12.963-21.586,12.964-28.747
				C109.643,82.364,103.838,76.561,96.679,76.559z"/>
			<path fill="#939598" d="M96.963,94.13c-2.801-0.001-5.073-2.271-5.073-5.073c0-2.802,2.271-5.072,5.073-5.072
				c2.802-0.001,5.073,2.27,5.072,5.073C102.036,91.857,99.765,94.128,96.963,94.13z M96.963,76.844
				C89.803,76.845,84,82.649,84,89.808c0,7.16,12.963,28.745,12.963,28.745s12.963-21.585,12.964-28.745
				C109.926,82.648,104.123,76.845,96.963,76.844z"/>
			<path fill="#939598" d="M97.247,94.413c-2.802,0-5.073-2.271-5.073-5.072c0-2.802,2.272-5.073,5.072-5.072
				c2.803-0.001,5.073,2.271,5.073,5.072C102.319,92.142,100.049,94.413,97.247,94.413z M97.248,77.128
				c-7.161,0.001-12.964,5.806-12.964,12.965c0.001,7.158,12.963,28.745,12.963,28.745s12.963-21.586,12.964-28.747
				C110.211,82.934,104.406,77.129,97.248,77.128z"/>
			<path fill="#939598" d="M97.531,94.698c-2.801,0-5.073-2.271-5.073-5.073c0-2.801,2.271-5.072,5.072-5.072
				c2.803-0.001,5.073,2.27,5.073,5.073C102.604,92.426,100.333,94.697,97.531,94.698z M97.532,77.412
				c-7.16,0.001-12.964,5.806-12.964,12.965c0,7.16,12.963,28.745,12.963,28.745s12.963-21.585,12.964-28.746
				C110.495,83.218,104.69,77.413,97.532,77.412z"/>
			<path fill="#939598" d="M97.816,94.982c-2.802,0-5.073-2.271-5.073-5.073c0-2.801,2.271-5.072,5.072-5.072
				c2.803-0.001,5.073,2.271,5.073,5.073C102.889,92.71,100.618,94.981,97.816,94.982z M97.816,77.696
				c-7.16,0.001-12.963,5.807-12.963,12.965c0,7.159,12.963,28.745,12.963,28.745S110.779,97.82,110.78,90.66
				C110.779,83.502,104.975,77.697,97.816,77.696z"/>
			<path fill="#939598" d="M98.1,95.267c-2.801,0-5.073-2.271-5.073-5.072c0-2.802,2.271-5.072,5.073-5.072
				c2.802-0.001,5.073,2.27,5.073,5.072C103.173,92.995,100.903,95.266,98.1,95.267z M98.101,77.981
				c-7.16,0.001-12.964,5.805-12.964,12.965c0,7.159,12.963,28.744,12.963,28.744s12.963-21.585,12.964-28.745
				C111.064,83.786,105.26,77.982,98.101,77.981z"/>
			<path fill="#939598" d="M98.385,95.551c-2.802,0-5.073-2.271-5.073-5.072c0-2.802,2.271-5.072,5.072-5.072
				c2.803-0.002,5.074,2.271,5.073,5.072C103.458,93.279,101.188,95.551,98.385,95.551z M98.385,78.265
				c-7.16,0.002-12.964,5.807-12.964,12.966c0,7.159,12.964,28.745,12.964,28.745s12.963-21.586,12.964-28.747
				C111.349,84.071,105.544,78.267,98.385,78.265z"/>
			<path fill="#939598" d="M98.669,95.836c-2.802-0.001-5.073-2.271-5.073-5.073c0-2.801,2.271-5.071,5.072-5.071
				c2.803-0.002,5.073,2.269,5.073,5.072C103.742,93.563,101.472,95.834,98.669,95.836z M98.67,78.55
				c-7.161,0.002-12.964,5.806-12.964,12.965c0,7.16,12.963,28.745,12.963,28.745s12.963-21.585,12.964-28.746
				C111.633,84.355,105.829,78.552,98.67,78.55z"/>
			<path fill="#939598" d="M98.954,96.12c-2.801,0-5.073-2.271-5.073-5.073c0-2.801,2.271-5.072,5.073-5.072
				c2.802-0.001,5.073,2.271,5.072,5.073C104.027,93.848,101.756,96.119,98.954,96.12z M98.954,78.834
				c-7.16,0.001-12.964,5.806-12.964,12.965s12.963,28.745,12.963,28.745s12.963-21.586,12.964-28.746
				C111.917,84.64,106.113,78.835,98.954,78.834z"/>
			<path fill="#939598" d="M99.238,96.404c-2.801,0-5.073-2.271-5.073-5.072c0-2.802,2.272-5.073,5.073-5.072
				c2.802-0.001,5.073,2.27,5.073,5.072C104.311,94.133,102.04,96.403,99.238,96.404z M99.238,79.119
				c-7.16,0.001-12.964,5.806-12.964,12.965c0.001,7.158,12.963,28.744,12.963,28.744s12.963-21.585,12.964-28.745
				C112.202,84.925,106.397,79.12,99.238,79.119z"/>
			<path fill="#939598" d="M99.522,96.689c-2.801,0-5.073-2.271-5.073-5.073c0-2.801,2.271-5.072,5.072-5.072
				c2.802-0.001,5.073,2.271,5.073,5.072C104.595,94.417,102.325,96.688,99.522,96.689z M99.522,79.403
				c-7.16,0.001-12.963,5.806-12.963,12.965s12.963,28.745,12.963,28.745s12.963-21.586,12.964-28.746
				C112.486,85.209,106.682,79.404,99.522,79.403z"/>
			<path fill="#939598" d="M99.807,96.974c-2.801-0.001-5.073-2.271-5.073-5.073c0-2.801,2.271-5.072,5.073-5.072
				c2.802-0.001,5.073,2.27,5.072,5.073C104.88,94.701,102.609,96.972,99.807,96.974z M99.807,79.688
				c-7.16,0.001-12.964,5.806-12.964,12.965c0,7.159,12.964,28.745,12.964,28.745s12.963-21.586,12.964-28.746
				C112.771,85.493,106.967,79.688,99.807,79.688z"/>
			<path fill="#939598" d="M100.091,97.258c-2.802,0-5.073-2.271-5.073-5.072c0-2.802,2.271-5.073,5.072-5.073
				c2.802,0,5.073,2.271,5.073,5.073C105.164,94.986,102.894,97.257,100.091,97.258z M100.091,79.973
				c-7.16,0-12.963,5.805-12.963,12.964c0,7.159,12.963,28.745,12.963,28.745s12.963-21.586,12.964-28.746
				C113.055,85.777,107.25,79.973,100.091,79.973z"/>
			<path fill="#939598" d="M100.376,97.542c-2.801,0-5.073-2.271-5.073-5.072c0-2.802,2.271-5.072,5.073-5.072
				c2.802-0.002,5.073,2.27,5.072,5.072C105.449,95.27,103.178,97.541,100.376,97.542z M100.376,80.256
				c-7.16,0.002-12.963,5.807-12.963,12.966s12.963,28.745,12.963,28.745s12.963-21.586,12.964-28.747
				C113.339,86.063,107.536,80.258,100.376,80.256z"/>
			<path fill="#939598" d="M100.661,97.827c-2.802-0.001-5.073-2.271-5.073-5.073c0-2.801,2.271-5.072,5.073-5.072
				c2.802-0.001,5.073,2.27,5.073,5.072C105.733,95.555,103.463,97.825,100.661,97.827z M100.661,80.541
				c-7.16,0.001-12.963,5.806-12.963,12.964c0,7.16,12.963,28.746,12.963,28.746s12.963-21.586,12.963-28.746
				C113.624,86.346,107.82,80.542,100.661,80.541z"/>
			<path fill="#939598" d="M100.944,98.11c-2.801,0-5.073-2.271-5.073-5.072c0-2.802,2.271-5.072,5.072-5.072
				c2.802-0.001,5.073,2.27,5.073,5.072C106.017,95.839,103.747,98.109,100.944,98.11z M100.945,80.825
				c-7.16,0.001-12.964,5.806-12.964,12.965c0,7.159,12.963,28.745,12.963,28.745s12.963-21.586,12.964-28.746
				C113.908,86.631,108.104,80.826,100.945,80.825z"/>
			<path fill="#939598" d="M101.229,98.396c-2.802,0-5.073-2.271-5.073-5.072c0-2.802,2.271-5.073,5.072-5.073
				c2.802,0,5.073,2.271,5.073,5.073C106.301,96.124,104.031,98.395,101.229,98.396z M101.229,81.11
				c-7.16,0-12.963,5.805-12.963,12.964s12.963,28.745,12.963,28.745s12.963-21.586,12.964-28.746
				C114.192,86.915,108.388,81.11,101.229,81.11z"/>
			<path fill="#939598" d="M101.513,98.68c-2.801-0.001-5.073-2.271-5.072-5.072c0-2.802,2.271-5.072,5.072-5.072
				c2.802-0.002,5.073,2.27,5.073,5.072C106.586,96.407,104.315,98.679,101.513,98.68z M101.514,81.394
				C94.354,81.396,88.55,87.2,88.55,94.359c0,7.159,12.963,28.745,12.963,28.745s12.963-21.586,12.964-28.747
				C114.477,87.199,108.672,81.396,101.514,81.394z"/>
			<path fill="#939598" d="M101.798,98.965c-2.802-0.001-5.073-2.271-5.073-5.073c0-2.801,2.271-5.072,5.072-5.072
				c2.802-0.001,5.073,2.27,5.072,5.073C106.871,96.692,104.6,98.963,101.798,98.965z M101.798,81.679
				c-7.16,0.001-12.964,5.806-12.964,12.964c0,7.16,12.964,28.745,12.964,28.745s12.963-21.585,12.964-28.745
				C114.762,87.483,108.958,81.68,101.798,81.679z"/>
			<path fill="#939598" d="M102.082,99.248c-2.802,0-5.073-2.271-5.073-5.072c0-2.802,2.271-5.072,5.072-5.072
				c2.803-0.001,5.073,2.271,5.073,5.072C107.155,96.977,104.884,99.248,102.082,99.248z M102.083,81.963
				c-7.161,0.001-12.964,5.806-12.964,12.965c0,7.159,12.963,28.745,12.963,28.745s12.963-21.586,12.964-28.746
				C115.046,87.769,109.241,81.964,102.083,81.963z"/>
			<path fill="#939598" d="M102.367,99.533c-2.801,0-5.073-2.271-5.072-5.072c0-2.802,2.271-5.073,5.072-5.073
				c2.802-0.001,5.073,2.271,5.072,5.073C107.439,97.261,105.169,99.532,102.367,99.533z M102.367,82.247
				c-7.16,0.001-12.964,5.806-12.964,12.965c0,7.16,12.963,28.745,12.963,28.745s12.963-21.585,12.964-28.746
				C115.331,88.053,109.526,82.248,102.367,82.247z"/>
			<path fill="#939598" d="M102.651,99.817c-2.802,0-5.073-2.271-5.073-5.073c0-2.801,2.271-5.071,5.072-5.071
				c2.803-0.002,5.073,2.27,5.073,5.072C107.724,97.545,105.453,99.816,102.651,99.817z M102.651,82.531
				c-7.16,0.002-12.964,5.807-12.964,12.965c0,7.16,12.964,28.746,12.964,28.746s12.963-21.586,12.964-28.747
				C115.615,88.337,109.811,82.533,102.651,82.531z"/>
		</g>
	</g>
	<path fill="#EEEFEC" d="M45.484,25.365c-7.16,0-12.963,5.805-12.963,12.964s12.963,28.744,12.963,28.744
		s12.963-21.585,12.963-28.744S52.643,25.365,45.484,25.365z M45.484,42.649c-2.802,0-5.073-2.271-5.073-5.072
		s2.271-5.072,5.073-5.072s5.072,2.271,5.072,5.072S48.286,42.649,45.484,42.649z"/>
</g>
</svg>
