<?xml version="1.0" encoding="utf-8"?>
<!-- Generator: Adobe Illustrator 17.0.0, SVG Export Plug-In . SVG Version: 6.00 Build 0)  -->
<!DOCTYPE svg PUBLIC "-//W3C//DTD SVG 1.1//EN" "http://www.w3.org/Graphics/SVG/1.1/DTD/svg11.dtd">
<svg version="1.1" id="Capa_1" xmlns="http://www.w3.org/2000/svg" xmlns:xlink="http://www.w3.org/1999/xlink" x="0px" y="0px"
	 width="512px" height="512px" viewBox="0 0 512 512" enable-background="new 0 0 512 512" xml:space="preserve">
<g>
	<path fill="#FFFFFF" d="M512,432c0,44-36,80-80,80H80c-44,0-80-36-80-80V80C0,36,36,0,80,0h352c44,0,80,36,80,80V432z"/>
</g>
<g>
	<g>
		<path fill="#201A1B" d="M124.934,159.875c-0.775-2.396-1.2-4.945-1.2-7.594c0-13.802,11.348-24.99,25.346-24.99
			c10.028,0,18.67,5.756,22.78,14.087c3.55-0.946,7.134-1.805,10.752-2.576c-5.397-13.038-18.367-22.234-33.531-22.234
			c-20.004,0-36.221,15.989-36.221,35.713c0,4.595,0.912,8.973,2.515,13.008C118.51,163.407,121.698,161.602,124.934,159.875z"/>
		<path fill="#201A1B" d="M161.636,144.367c-2.651-4.08-7.278-6.791-12.557-6.791c-8.236,0-14.914,6.583-14.914,14.704
			c0,0.961,0.1,1.897,0.279,2.807C143.208,150.939,152.287,147.351,161.636,144.367z"/>
		<g>
			<path fill="#201A1B" d="M387.066,159.875c0.775-2.396,1.2-4.945,1.2-7.594c0-13.802-11.348-24.99-25.346-24.99
				c-10.028,0-18.67,5.756-22.78,14.087c-3.55-0.946-7.134-1.805-10.752-2.576c5.397-13.038,18.367-22.234,33.531-22.234
				c20.004,0,36.221,15.989,36.221,35.713c0,4.595-0.911,8.973-2.515,13.008C393.49,163.407,390.302,161.602,387.066,159.875z"/>
			<path fill="#201A1B" d="M350.364,144.367c2.651-4.08,7.278-6.791,12.557-6.791c8.236,0,14.914,6.583,14.914,14.704
				c0,0.961-0.1,1.897-0.279,2.807C368.792,150.939,359.714,147.351,350.364,144.367z"/>
		</g>
	</g>
	<g>
		<g>
			<path d="M275.691,17.738c-18.468-2.334-118.965,29.463-128.171,36.215s106.544,85.08,118.703,88.487
				c12.159,3.407,123.778-60.143,128.139-68.504C398.722,65.575,300.291,20.847,275.691,17.738z"/>
			<path d="M193.439,103.386c0,0,59.146,44.228,72.633,46.494c13.488,2.266,63.952-24.533,74.517-32.838
				c0,0-3.468,45.683-3.875,51.033c-0.953,12.552-148.843,3.187-147.75-11.218C189.747,146.568,193.439,103.386,193.439,103.386z"/>
		</g>
		<path fill="#3AAA35" d="M276.409,66.114c-7.022-0.053-13.986,2.398-20.931,3.607c-8.541,1.487-17.205,2.312-25.819,3.239
			c-17.522,1.884-34.746,4.181-51.472,9.943c-0.92,0.317-1.741,1.576-1.721,2.535c0.302,14.8-3.025,29.18-6.186,43.587
			c-2.446-0.159-5.153-0.134-6.897,1.669c-0.705,0.729-0.702,1.775,0.127,2.417c1.15,0.89,2.445,1.136,3.791,1.265
			c-9.261,11.768-11.218,25.379-1.42,38.814c1.111,1.523,3.094,0.571,3.511-0.896c0.576-0.274,0.968-0.822,1.197-1.527
			c3.386-2.919,4.519-9.363,5.374-13.149c1.357-6.01,2.404-14.59,0.694-21.397c0.672,0.141,1.348,0.256,2.036,0.293
			c2.759,0.148,4.155-3.503,1.81-5.112c-1.26-0.865-2.721-1.368-4.24-1.695c0.603-2.937,1.212-5.875,1.847-8.834
			c1.35-6.291,2.502-12.599,3.458-18.961c0.626-4.17,0.912-8.372,1.108-12.58c0.139-2.985,11.736-4.879,13.972-5.409
			c15.407-3.652,31.425-4.645,47.109-6.512c10.256-1.22,26.654-0.963,33.245-10.055C277.339,66.891,277.013,66.119,276.409,66.114z"
			/>
	</g>
	<g>
		<g>
			<path d="M231.272,212.674c-10.356-11.879-21.713-14.663-40.51-10.53c-18.971,4.177-34.374,13.663-50.43,31.546
				c-15.838,17.84-26.368,33.548-32.678,55.434c-4.525,22.322-3.046,39.291,3.481,51.953c3.481,1.697,7.223,3.481,11.444,6.657
				c7.266,5.526,9.79,9.442,11.009,11.008c36.637,12.445,66.573-18.884,80.236-39.117c15.36-22.713,22.626-36.593,25.889-58.175
				C242.89,240.348,241.628,224.335,231.272,212.674z M213.041,271.328c-2.002,12.444-7.31,24.149-15.926,35.114
				c-9.225,11.705-19.58,18.928-31.024,21.669c-11.4,2.698-20.059-0.044-25.933-8.267c-5.57-7.701-7.092-17.927-4.699-30.589
				c2.437-12.749,8.093-24.41,16.839-34.94c9.094-10.791,19.189-17.405,30.371-19.928c11.096-2.48,19.45,0.043,25.15,7.527
				C213.302,249.05,215.085,258.84,213.041,271.328z"/>
			<path d="M199.668,273.083c1.2-7.411,0.157-13.204-3.108-17.418c-3.363-4.451-8.318-5.933-14.895-4.458
				c-6.599,1.48-12.584,5.401-17.975,11.806c-5.185,6.233-8.514,13.119-9.96,20.668c-1.437,7.502-0.523,13.557,2.77,18.125
				c3.478,4.86,8.609,6.496,15.362,4.893c6.785-1.611,12.912-5.902,18.358-12.828C195.336,287.38,198.476,280.447,199.668,273.083z"
				/>
		</g>
		<g>
			<path d="M272.287,261.451c3.263,21.582,10.53,35.462,25.889,58.175c13.663,20.233,43.599,51.562,80.236,39.117
				c1.218-1.566,3.742-5.483,11.009-11.008c4.221-3.177,7.963-4.96,11.444-6.657c6.527-12.662,8.006-29.632,3.481-51.953
				c-6.309-21.886-16.839-37.594-32.678-55.434c-16.056-17.883-31.459-27.369-50.43-31.546c-18.797-4.134-30.154-1.349-40.51,10.53
				C270.372,224.335,269.11,240.348,272.287,261.451z M304.181,241.914c5.7-7.484,14.055-10.008,25.15-7.527
				c11.183,2.524,21.277,9.137,30.371,19.928c8.746,10.53,14.402,22.191,16.839,34.94c2.393,12.662,0.87,22.887-4.699,30.589
				c-5.874,8.224-14.533,10.965-25.933,8.267c-11.444-2.741-21.8-9.964-31.024-21.669c-8.615-10.965-13.924-22.67-15.926-35.114
				C296.915,258.84,298.699,249.05,304.181,241.914z"/>
			<path d="M321.78,293.871c5.446,6.925,11.573,11.217,18.358,12.828c6.753,1.603,11.884-0.033,15.362-4.893
				c3.293-4.567,4.207-10.623,2.77-18.125c-1.446-7.549-4.774-14.435-9.96-20.668c-5.392-6.405-11.377-10.327-17.975-11.806
				c-6.577-1.475-11.532,0.007-14.895,4.458c-3.265,4.214-4.308,10.007-3.108,17.418C313.524,280.447,316.664,287.38,321.78,293.871
				z"/>
		</g>
	</g>
	<ellipse cx="252.969" cy="375.457" rx="56.831" ry="26.295"/>
</g>
<g>
	<path d="M44.02,396.507h11.468v70.299h43.464v9.977H44.02V396.507z"/>
	<path d="M119.479,473.457c-4.816-2.676-8.583-6.365-11.296-11.067c-2.715-4.701-4.071-10.034-4.071-15.997
		c0-5.964,1.356-11.296,4.071-15.998c2.713-4.701,6.479-8.371,11.296-11.009s10.244-3.956,16.284-3.956
		c6.038,0,11.448,1.318,16.227,3.956c4.777,2.638,8.524,6.308,11.239,11.009c2.713,4.702,4.07,10.034,4.07,15.998
		c0,5.963-1.357,11.296-4.07,15.997c-2.715,4.702-6.462,8.392-11.239,11.067c-4.778,2.677-10.188,4.014-16.227,4.014
		C129.724,477.471,124.296,476.134,119.479,473.457z M146.257,465.143c3.097-1.796,5.522-4.318,7.282-7.569
		c1.758-3.248,2.638-6.976,2.638-11.181c0-4.204-0.88-7.931-2.638-11.182c-1.76-3.248-4.186-5.752-7.282-7.511
		c-3.097-1.758-6.594-2.638-10.493-2.638s-7.396,0.88-10.493,2.638c-3.097,1.759-5.544,4.263-7.34,7.511
		c-1.797,3.251-2.694,6.978-2.694,11.182c0,4.205,0.897,7.933,2.694,11.181c1.796,3.251,4.243,5.773,7.34,7.569
		c3.097,1.797,6.594,2.694,10.493,2.694S143.16,466.939,146.257,465.143z"/>
	<path d="M240.693,416.003v52.522c0,10.626-2.638,18.481-7.913,23.566c-5.275,5.083-13.15,7.626-23.624,7.626
		c-5.733,0-11.201-0.785-16.398-2.351c-5.2-1.568-9.404-3.805-12.615-6.709l5.275-8.486c2.827,2.446,6.325,4.376,10.493,5.792
		c4.166,1.413,8.467,2.121,12.901,2.121c7.11,0,12.365-1.683,15.769-5.046c3.4-3.365,5.103-8.486,5.103-15.367v-4.816
		c-2.6,3.136-5.791,5.487-9.575,7.053c-3.784,1.568-7.896,2.352-12.328,2.352c-5.811,0-11.066-1.242-15.769-3.728
		c-4.701-2.483-8.391-5.963-11.066-10.436c-2.677-4.473-4.014-9.576-4.014-15.31c0-5.734,1.337-10.837,4.014-15.31
		c2.676-4.473,6.365-7.931,11.066-10.379c4.702-2.445,9.958-3.669,15.769-3.669c4.587,0,8.848,0.842,12.786,2.522
		c3.938,1.683,7.168,4.168,9.69,7.454v-9.403H240.693z M219.764,462.103c3.172-1.681,5.657-4.032,7.454-7.053
		c1.796-3.02,2.695-6.44,2.695-10.264c0-5.887-1.949-10.646-5.849-14.277c-3.899-3.631-8.907-5.447-15.022-5.447
		c-6.193,0-11.239,1.816-15.138,5.447c-3.899,3.632-5.849,8.391-5.849,14.277c0,3.823,0.897,7.244,2.694,10.264
		c1.796,3.021,4.281,5.372,7.454,7.053c3.172,1.683,6.784,2.522,10.838,2.522C213.016,464.626,216.591,463.786,219.764,462.103z"/>
	<path d="M302.274,473.457c-4.816-2.676-8.583-6.365-11.296-11.067c-2.715-4.701-4.071-10.034-4.071-15.997
		c0-5.964,1.356-11.296,4.071-15.998c2.713-4.701,6.479-8.371,11.296-11.009s10.244-3.956,16.284-3.956
		c6.038,0,11.448,1.318,16.227,3.956c4.777,2.638,8.524,6.308,11.239,11.009c2.713,4.702,4.07,10.034,4.07,15.998
		c0,5.963-1.357,11.296-4.07,15.997c-2.715,4.702-6.462,8.392-11.239,11.067c-4.778,2.677-10.188,4.014-16.227,4.014
		C312.519,477.471,307.091,476.134,302.274,473.457z M329.052,465.143c3.097-1.796,5.522-4.318,7.282-7.569
		c1.758-3.248,2.638-6.976,2.638-11.181c0-4.204-0.88-7.931-2.638-11.182c-1.76-3.248-4.186-5.752-7.282-7.511
		c-3.097-1.758-6.594-2.638-10.493-2.638s-7.396,0.88-10.493,2.638c-3.097,1.759-5.544,4.263-7.34,7.511
		c-1.797,3.251-2.694,6.978-2.694,11.182c0,4.205,0.897,7.933,2.694,11.181c1.796,3.251,4.243,5.773,7.34,7.569
		c3.097,1.797,6.594,2.694,10.493,2.694S325.955,466.939,329.052,465.143z"/>
	<path d="M421.998,416.003v60.779h-10.436v-9.174c-2.219,3.136-5.143,5.562-8.773,7.281c-3.632,1.721-7.588,2.581-11.869,2.581
		c-8.104,0-14.488-2.236-19.151-6.709c-4.664-4.473-6.995-11.066-6.995-19.782v-34.977h11.009v33.715
		c0,5.889,1.414,10.341,4.243,13.36c2.828,3.021,6.881,4.53,12.156,4.53c5.81,0,10.396-1.758,13.762-5.275
		c3.363-3.516,5.046-8.486,5.046-14.908v-31.422H421.998z"/>
	<path d="M477.157,473.227c-1.605,1.376-3.595,2.428-5.964,3.153c-2.37,0.726-4.816,1.09-7.339,1.09
		c-6.118,0-10.857-1.644-14.221-4.932c-3.365-3.286-5.046-7.988-5.046-14.105v-33.371h-10.321v-9.06h10.321V402.7h11.01v13.303
		h17.431v9.06h-17.431v32.912c0,3.288,0.82,5.812,2.465,7.569c1.644,1.76,3.994,2.638,7.053,2.638c3.363,0,6.23-0.955,8.602-2.867
		L477.157,473.227z"/>
</g>
</svg>
