<?xml version="1.0" encoding="utf-8"?>
<!-- Generator: Adobe Illustrator 17.0.0, SVG Export Plug-In . SVG Version: 6.00 Build 0)  -->
<!DOCTYPE svg PUBLIC "-//W3C//DTD SVG 1.1//EN" "http://www.w3.org/Graphics/SVG/1.1/DTD/svg11.dtd">
<svg version="1.1" id="Capa_1" xmlns="http://www.w3.org/2000/svg" xmlns:xlink="http://www.w3.org/1999/xlink" x="0px" y="0px"
	 width="31.181px" height="31.181px" viewBox="405.354 282.049 31.181 31.181"
	 enable-background="new 405.354 282.049 31.181 31.181" xml:space="preserve">
<g>
	<g>
		<g>
			<circle cx="422.833" cy="306.775" r="0.914"/>
		</g>
	</g>
	<g>
		<g>
			<path d="M435.622,287.531h-2.741v-2.741c0-0.505-0.409-0.914-0.913-0.914h-3.657c-0.834-1.109-2.16-1.827-3.652-1.827
				s-2.817,0.718-3.652,1.827h-14.74c-0.504,0-0.913,0.409-0.913,0.914v23.812c0,0.505,0.409,0.914,0.913,0.914h2.741v2.801
				c0,0.505,0.409,0.914,0.914,0.914h18.705c1.22,0,2.367-0.475,3.23-1.338c0.002-0.002,0.004-0.004,0.006-0.006l3.338-3.399
				c0.861-0.862,1.335-2.008,1.335-3.227v-16.818C436.536,287.94,436.127,287.531,435.622,287.531z M429.136,285.703h1.919v1.827
				h-1.919c0.06-0.295,0.092-0.601,0.092-0.914C429.228,286.304,429.196,285.999,429.136,285.703z M424.66,283.876
				c1.511,0,2.741,1.229,2.741,2.741c0,1.511-1.229,2.741-2.741,2.741c-1.511,0-2.741-1.229-2.741-2.741
				C421.919,285.106,423.149,283.876,424.66,283.876z M409.009,288.444v19.245h-1.827v-21.991h13.003
				c-0.06,0.295-0.092,0.607-0.092,0.92c0,0.313,0.032,0.618,0.092,0.914h-10.262C409.418,287.531,409.009,287.94,409.009,288.444z
				 M433.906,307.199c-0.002,0.002-0.004,0.004-0.006,0.006l-3.338,3.398c-0.373,0.371-0.833,0.622-1.335,0.733v-5.476h5.415
				C434.53,306.364,434.279,306.826,433.906,307.199z M434.709,304.035h-6.395c-0.504,0-0.914,0.409-0.914,0.914v6.455h-16.565
				v-22.046h10.173c0.126,0.167,0.263,0.326,0.41,0.474l-1.173,1.76c-0.28,0.42-0.166,0.987,0.253,1.267
				c0.42,0.28,0.987,0.166,1.267-0.253l1.172-1.758c0.532,0.217,1.113,0.338,1.722,0.338c1.491,0,2.817-0.718,3.652-1.827h6.397
				V304.035z"/>
		</g>
	</g>
	<g>
		<g>
			<path d="M431.968,294.9h-18.392c-0.504,0-0.914,0.409-0.914,0.913c0,0.505,0.409,0.914,0.914,0.914h18.392
				c0.504,0,0.913-0.409,0.913-0.914C432.882,295.309,432.473,294.9,431.968,294.9z"/>
		</g>
	</g>
	<g>
		<g>
			<path d="M431.968,298.554h-18.392c-0.504,0-0.914,0.409-0.914,0.914c0,0.504,0.409,0.914,0.914,0.914h18.392
				c0.504,0,0.913-0.409,0.913-0.914C432.882,298.963,432.473,298.554,431.968,298.554z"/>
		</g>
	</g>
	<g>
		<g>
			<path d="M424.66,302.208h-11.084c-0.504,0-0.914,0.409-0.914,0.914c0,0.505,0.409,0.914,0.914,0.914h11.084
				c0.504,0,0.914-0.409,0.914-0.914C425.573,302.617,425.164,302.208,424.66,302.208z"/>
		</g>
	</g>
	<g>
		<g>
			<path d="M419.179,305.862h-5.603c-0.504,0-0.914,0.409-0.914,0.914c0,0.504,0.409,0.914,0.914,0.914h5.603
				c0.504,0,0.913-0.409,0.913-0.914C420.092,306.271,419.683,305.862,419.179,305.862z"/>
		</g>
	</g>
</g>
</svg>
