<?xml version="1.0" encoding="iso-8859-1"?>
<!-- Generator: Adobe Illustrator 19.0.0, SVG Export Plug-In . SVG Version: 6.00 Build 0)  -->
<svg version="1.1" id="Capa_1" xmlns="http://www.w3.org/2000/svg" xmlns:xlink="http://www.w3.org/1999/xlink" x="0px" y="0px"
	 viewBox="0 0 512 512" style="enable-background:new 0 0 512 512;" xml:space="preserve">
<g>
	<g>
		<circle cx="287" cy="406" r="15"/>
	</g>
</g>
<g>
	<g>
		<path d="M497,90h-45V45c0-8.284-6.716-15-15-15h-60.041C363.262,11.796,341.484,0,317,0s-46.262,11.796-59.959,30H15
			C6.716,30,0,36.716,0,45v391c0,8.284,6.716,15,15,15h45v46c0,8.284,6.716,15,15,15h307.147c20.033,0,38.867-7.801,53.032-21.967
			c0.032-0.032,0.063-0.064,0.096-0.096l54.812-55.81c14.131-14.16,21.913-32.973,21.913-52.98V105C512,96.716,505.284,90,497,90z
			 M390.491,60H422v30h-31.509c0.988-4.848,1.509-9.864,1.509-15S391.479,64.848,390.491,60z M317,30c24.813,0,45,20.187,45,45
			s-20.187,45-45,45s-45-20.187-45-45S292.187,30,317,30z M60,105v316H30V59.9h213.509C242.521,64.748,242,69.864,242,75
			s0.521,10.152,1.509,15H75C66.716,90,60,96.716,60,105z M468.821,412.967c-0.033,0.032-0.064,0.064-0.096,0.096l-54.805,55.803
			c-6.117,6.1-13.684,10.213-21.92,12.044V391h88.911C479.075,399.257,474.946,406.841,468.821,412.967z M482,361H377
			c-8.284,0-15,6.716-15,15v106H90V120h167.041c2.068,2.749,4.322,5.35,6.74,7.787l-19.261,28.892
			c-4.596,6.893-2.733,16.206,4.16,20.801c6.896,4.598,16.209,2.729,20.801-4.16l19.248-28.871C297.459,148.017,307,150,317,150
			c24.484,0,46.262-11.796,59.959-30H482V361z"/>
	</g>
</g>
<g>
	<g>
		<path d="M437,211H135c-8.284,0-15,6.716-15,15s6.716,15,15,15h302c8.284,0,15-6.716,15-15S445.284,211,437,211z"/>
	</g>
</g>
<g>
	<g>
		<path d="M437,271H135c-8.284,0-15,6.716-15,15s6.716,15,15,15h302c8.284,0,15-6.716,15-15S445.284,271,437,271z"/>
	</g>
</g>
<g>
	<g>
		<path d="M317,331H135c-8.284,0-15,6.716-15,15s6.716,15,15,15h182c8.284,0,15-6.716,15-15S325.284,331,317,331z"/>
	</g>
</g>
<g>
	<g>
		<path d="M227,391h-92c-8.284,0-15,6.716-15,15s6.716,15,15,15h92c8.284,0,15-6.716,15-15S235.284,391,227,391z"/>
	</g>
</g>
<g>
</g>
<g>
</g>
<g>
</g>
<g>
</g>
<g>
</g>
<g>
</g>
<g>
</g>
<g>
</g>
<g>
</g>
<g>
</g>
<g>
</g>
<g>
</g>
<g>
</g>
<g>
</g>
<g>
</g>
</svg>
